<svg xmlns="http://www.w3.org/2000/svg" fill="none" viewBox="35.95 65.76 186.66 204.64">
<path d="M131.58 158.819C132.275 159.255 132.614 159.798 132.535 160.346C132.457 160.894 131.965 161.409 131.153 161.794H133.094C130.824 160.953 129.181 159.78 128.412 158.451C127.643 157.121 127.789 155.708 128.829 154.422L126.318 154.581C128.092 155.668 126.387 161.531 126.723 162.905C127.06 164.279 129.426 161.109 128.226 162.365L130.725 162.524C130.222 161.317 130.709 160.063 132.085 159.025L129.892 159.163C131.218 159.813 131.955 160.69 131.941 161.601C131.926 162.513 131.162 163.384 129.815 164.025C128.587 164.638 130.517 165.573 131.756 164.96C133.594 164.066 134.632 162.86 134.646 161.601C134.661 160.342 133.651 159.131 131.833 158.227C131.704 158.165 131.551 158.115 131.383 158.081C131.215 158.047 131.034 158.03 130.851 158.03C130.669 158.03 130.488 158.047 130.32 158.081C130.151 158.115 129.999 158.165 129.87 158.227C129.795 158.264 129.729 158.305 129.673 158.349C127.947 159.698 127.362 161.316 128.039 162.867C128.091 162.951 128.176 163.03 128.291 163.098C128.405 163.166 128.546 163.222 128.706 163.264C128.866 163.306 129.042 163.332 129.223 163.341C129.403 163.35 129.586 163.342 129.76 163.316C130.086 163.268 130.366 163.165 130.55 163.026C131.997 161.566 132.584 159.943 132.247 158.334C131.911 156.724 130.664 155.19 128.642 153.899C128.545 153.824 128.418 153.759 128.269 153.709C128.119 153.658 127.951 153.622 127.772 153.603C127.594 153.583 127.409 153.581 127.229 153.597C127.049 153.612 126.877 153.645 126.723 153.693C126.449 153.778 126.243 153.907 126.142 154.057C124.968 155.569 124.815 157.221 125.708 158.777C126.6 160.333 128.49 161.713 131.109 162.719C131.372 162.839 131.719 162.905 132.079 162.905C132.44 162.905 132.787 162.839 133.05 162.719C134.351 162.145 135.159 161.358 135.318 160.511C135.476 159.664 134.972 158.819 133.905 158.143C132.874 157.461 130.495 158.143 131.537 158.808L131.58 158.819Z" fill="black"/>
<path d="M80.091 164.265C80.7388 164.701 81.0558 165.244 80.9823 165.792C80.9088 166.34 80.4499 166.855 79.6919 167.241H81.5032C79.3848 166.399 77.8517 165.226 77.134 163.897C76.4163 162.568 76.5526 161.154 77.5225 159.868L75.1791 160.027C76.8353 161.114 76.6221 162.102 76.9363 163.476C77.2505 164.85 78.0798 166.555 76.9597 167.811L79.2928 167.97C78.8231 166.763 79.2779 165.509 80.5617 164.471L78.5151 164.609C79.7529 165.259 76.5979 165.534 76.5845 166.446C76.571 167.357 79.7003 168.831 78.4435 169.471C77.2974 170.084 79.0984 171.019 80.2547 170.406C81.9705 169.512 82.9391 168.306 82.9525 167.047C82.9659 165.788 82.0231 164.577 80.3264 163.673C80.2065 163.611 80.0638 163.561 79.9066 163.527C79.7494 163.494 79.5808 163.476 79.4105 163.476C79.2402 163.476 79.0716 163.494 78.9144 163.527C78.7572 163.561 78.6145 163.611 78.4946 163.673C78.4246 163.71 78.3628 163.751 78.3104 163.795C76.6993 165.144 76.1535 166.762 76.7857 168.313C76.8338 168.398 76.9136 168.476 77.0204 168.544C77.1273 168.612 77.2591 168.669 77.4084 168.71C77.5576 168.752 77.7214 168.778 77.8903 168.787C78.0591 168.796 78.2297 168.788 78.3923 168.763C78.6966 168.714 78.9576 168.611 79.1291 168.472C80.4794 167.012 81.0274 165.389 80.7134 163.78C80.3995 162.17 79.2355 160.636 77.3485 159.345C77.2579 159.27 77.1394 159.206 77.0001 159.155C76.8607 159.104 76.7031 159.068 76.5365 159.049C76.3699 159.029 76.1976 159.028 76.0296 159.043C75.8616 159.059 75.7012 159.091 75.5578 159.139C75.3012 159.225 75.1097 159.353 75.0154 159.503C73.919 161.015 73.7769 162.667 74.6096 164.223C75.4423 165.779 77.207 167.159 79.651 168.165C79.8959 168.285 80.2199 168.351 80.5566 168.351C80.8933 168.351 81.2173 168.285 81.4622 168.165C82.6764 167.591 83.4314 166.804 83.579 165.957C83.7267 165.11 83.2564 164.266 82.2604 163.589C81.2985 162.907 79.0779 163.589 80.0501 164.255L80.091 164.265Z" fill="black"/>
<path d="M151.729 69.4771C123.052 75.7501 55.1759 98.4964 50.2425 124.333C45.3091 150.17 118.402 123.542 146.232 122.514C195.256 196.477 224.777 166.174 222.488 154.267C220.199 142.36 173.728 64.6723 151.729 69.4771Z" fill="#1E6BF2"/>
<path d="M151.729 69.4771C123.052 75.7501 55.1759 98.4964 50.2425 124.333C45.3091 150.17 118.402 123.542 146.232 122.514C195.256 196.477 224.777 166.174 222.488 154.267C220.199 142.36 173.728 64.6723 151.729 69.4771Z" fill="#1E6BF2"/>
<path d="M83.6055 257.299C66.1095 246.892 51.1679 231.324 44.23 211.908C38.1611 194.731 38.1611 175.993 44.23 158.815C50.1476 142.188 61.8243 129.65 77.2419 121.382C92.841 113.016 110.397 108.043 127.878 105.45C146.372 102.699 167.178 102.125 184.72 109.653L186.632 106.388C174.783 101.432 162.461 97.6943 149.856 95.2325C128.453 90.8868 104.986 89.5869 84.9583 99.6915C76.5768 103.924 66.7444 110.053 62.8219 119.077C60.6226 124.118 61.6203 129.983 67.3565 131.872C75.5491 134.57 85.3664 129.212 92.0626 125.07C102.197 118.666 111.981 111.724 121.371 104.271C135.731 93.0785 149.788 81.2961 163.211 68.9469C165.002 67.2993 162.326 64.6314 160.535 66.2715C151.118 74.9401 141.361 83.2687 131.468 91.3856C122.769 98.5276 113.904 105.481 104.744 112.018C96.2873 118.064 87.1652 125.191 76.9699 127.889C72.6544 129.038 64.3561 129.582 65.5427 122.818C67.0542 114.217 77.6878 107.861 84.5653 104.128C103.459 93.8948 125.498 94.4465 146.055 98.2934C155.306 100.045 164.427 102.429 173.353 105.428C176.175 106.365 178.973 107.373 181.75 108.451L184.145 109.396L184.727 109.637C186.942 110.582 188.869 107.37 186.639 106.372C170.504 99.4421 152.063 98.9886 134.831 100.78C115.983 102.745 97.1413 107.582 80.0231 115.744C63.5096 123.657 50.1325 135.56 42.7033 152.557C35.2569 169.892 33.9244 189.242 38.9245 207.434C45.1973 230.213 61.7336 248.638 81.7614 260.549C83.8549 261.796 85.7595 258.531 83.666 257.284L83.6055 257.299Z" fill="black"/>
<path d="M147.061 118.804C164.653 132.652 174.258 154.831 177.61 176.506C181.223 199.387 175.633 222.769 162.062 241.542C154.057 252.489 143.291 261.493 130.673 266.6C128.415 267.487 129.4 271.162 131.652 270.255C154.261 261.098 170.762 240.997 178.154 218.037C185.546 195.077 182.812 170.111 173.337 148.129C168.056 135.856 160.319 124.469 149.738 116.178C147.846 114.693 145.145 117.331 147.046 118.83L147.061 118.804Z" fill="black"/>
<path d="M77.7701 162.52C77.6398 163.977 77.6302 165.442 77.7415 166.9C78.0088 168.493 79.168 169.575 80.7135 168.237C81.9698 167.143 82.825 164.847 83.365 163.325C83.905 161.803 86.3614 152.823 82.1287 155.157C80.1998 156.261 77.7737 160.38 77.7749 162.544C77.765 164.975 73.9542 164.965 73.9564 162.52C73.9632 159.811 75.3064 157.673 76.8759 155.544C78.3465 153.533 79.6449 151.499 82.3129 151.09C83.477 150.902 84.6711 151.091 85.7185 151.628C86.7659 152.166 87.611 153.022 88.1287 154.072C89.2722 156.534 88.2932 159.948 87.6232 162.425C86.4468 166.755 83.1709 174.842 77.1806 172.195C73.2162 170.44 73.9278 166.054 73.9564 162.52C73.9528 160.035 77.7675 160.052 77.7701 162.52Z" fill="black"/>
<path d="M108.775 146.381L85.2827 191.315L79.6724 202.047C78.7841 203.742 77.7443 205.419 77 207.18C75.767 210.067 76.7421 210.818 79.3957 211.412C87.4076 213.19 95.6012 214.359 103.687 215.842C106.103 216.284 105.1 219.929 102.695 219.49L88.411 216.893C84.4682 216.172 79.8012 215.962 76.08 214.443C68.5637 211.369 75.0958 202.596 77.4108 198.165L105.466 144.512C106.569 142.354 109.879 144.239 108.775 146.381Z" fill="black"/>
<path d="M87.418 233.161C89.8915 237.043 94.8287 237.37 98.9557 236.335C105.503 234.693 110.754 229.83 114.703 224.604C116.161 222.679 119.467 224.497 118.021 226.476C113.115 232.974 106.524 238.97 98.1601 240.351C92.7572 241.251 87.1585 239.82 84.1218 235.047C82.8183 232.991 86.1212 231.102 87.4246 233.158L87.418 233.161Z" fill="black"/>
<path d="M183.649 179.425C186.154 174.664 195.127 174.291 200.335 174.308C203.927 174.261 207.569 174.691 211.153 175.586C213.203 176.141 217.056 177.186 218.073 179.31C220.026 183.359 210.328 186.863 207.729 187.851C202.381 189.901 195.668 191.85 189.5 190.913C186.875 190.51 187.148 194.327 189.754 194.728C197.676 195.956 206.531 193.035 213.067 189.973C217.379 187.961 225.164 183.548 221.508 177.633C217.67 171.426 206.741 170.576 200.552 170.502C193.686 170.418 183.244 171.141 180.028 177.335C178.929 179.426 182.578 181.55 183.686 179.446L183.649 179.425Z" fill="black"/>
<path d="M120.186 143.292L128.5 147.463C128.859 147.671 129.14 147.99 129.3 148.371C129.46 148.752 129.491 149.174 129.387 149.574C128.073 152.821 127.011 156.44 127.177 159.975C127.277 162.187 127.608 163.088 129.936 162.76C131.403 162.629 132.777 161.988 133.814 160.951C135.632 158.917 137.65 154.202 136.736 151.531C136.03 149.473 130.619 147.638 129.183 149.996C127.915 152.082 124.603 150.207 125.871 148.12C128.274 144.128 134.511 144.81 137.962 147.059C142.93 150.326 140.267 157.409 137.946 161.529C135.824 165.308 130.491 168.036 126.15 166.148C120.447 163.677 124.063 152.576 125.683 148.568L126.569 150.679L118.264 146.477C116.067 145.368 117.97 142.089 120.156 143.195L120.186 143.292Z" fill="black"/>
</svg>