<svg width="281" height="263" viewBox="0 0 281 263" fill="none" xmlns="http://www.w3.org/2000/svg">
<path d="M299.935 262.409C300.343 262.99 301.144 263.128 301.721 262.719C302.3 262.311 302.44 261.51 302.031 260.93L299.935 262.409ZM222.075 197.576C245.288 207.685 264.756 223.882 278.442 237.591C285.278 244.439 290.658 250.653 294.327 255.152C296.161 257.402 297.567 259.22 298.512 260.476C298.984 261.103 299.341 261.589 299.581 261.918C299.701 262.083 299.789 262.206 299.849 262.289C299.878 262.331 299.9 262.362 299.914 262.382C299.922 262.392 299.928 262.399 299.931 262.404C299.933 262.406 299.933 262.407 299.935 262.409C299.935 262.409 299.935 262.409 300.982 261.67C302.031 260.93 302.031 260.93 302.031 260.93L302.029 260.928C302.028 260.926 302.026 260.923 302.024 260.919C302.02 260.914 302.013 260.905 302.005 260.894C301.99 260.872 301.966 260.838 301.933 260.793C301.87 260.705 301.777 260.575 301.652 260.405C301.407 260.065 301.041 259.568 300.559 258.928C299.595 257.65 298.169 255.804 296.312 253.526C292.601 248.975 287.162 242.694 280.253 235.774C266.448 221.945 246.718 205.507 223.097 195.219L222.075 197.576Z" fill="black"/>
<path d="M135.337 133.013L98.2051 140.963C98.2051 140.963 107.799 150.818 121.224 148.357C134.649 145.895 135.337 133.013 135.337 133.013Z" fill="white" stroke="#1A1B22" stroke-width="1.5" stroke-linecap="round" stroke-linejoin="round"/>
<path d="M176.821 91.2368C177.253 90.6751 177.15 89.8686 176.59 89.4354C176.029 89.0023 175.224 89.1062 174.791 89.6679L176.821 91.2368ZM170.753 113.769C171.043 114.416 171.803 114.704 172.45 114.413C173.094 114.123 173.383 113.362 173.092 112.715L170.753 113.769ZM174.791 89.6679C170.123 95.7306 169.088 101.734 169.239 106.232C169.315 108.473 169.685 110.335 170.039 111.644C170.215 112.299 170.388 112.818 170.519 113.179C170.586 113.36 170.64 113.5 170.682 113.6C170.702 113.649 170.719 113.688 170.731 113.716C170.736 113.731 170.741 113.743 170.745 113.75C170.747 113.755 170.748 113.758 170.749 113.762C170.751 113.764 170.751 113.765 170.751 113.765C170.751 113.766 170.753 113.767 170.753 113.767C170.753 113.768 170.753 113.769 171.922 113.242C173.092 112.715 173.092 112.716 173.092 112.716C173.092 112.717 173.092 112.717 173.094 112.717C173.094 112.718 173.094 112.718 173.094 112.718C173.094 112.719 173.094 112.718 173.092 112.717C173.092 112.715 173.09 112.71 173.087 112.703C173.08 112.688 173.069 112.662 173.054 112.627C173.027 112.557 172.982 112.446 172.928 112.297C172.818 111.998 172.67 111.551 172.514 110.974C172.201 109.819 171.869 108.154 171.803 106.145C171.666 102.142 172.574 96.751 176.821 91.2368L174.791 89.6679Z" fill="#1A1B22"/>
<path d="M169.106 119.342C168.634 118.814 167.823 118.769 167.295 119.242C166.768 119.716 166.724 120.528 167.196 121.056L169.106 119.342ZM167.196 121.056C168.63 122.659 170.762 123.446 172.935 123.808C175.13 124.176 177.544 124.141 179.749 123.948C181.965 123.755 184.024 123.396 185.525 123.087C186.277 122.932 186.892 122.79 187.321 122.685C187.537 122.633 187.704 122.59 187.82 122.56C187.878 122.545 187.925 122.533 187.956 122.525C187.971 122.52 187.983 122.517 187.992 122.515C187.995 122.513 187.998 122.513 188.002 122.512C188.002 122.512 188.003 122.512 188.003 122.512C188.005 122.512 188.005 122.512 188.005 122.511C188.005 122.511 188.005 122.511 187.669 121.272C187.33 120.033 187.33 120.033 187.33 120.033C187.33 120.033 187.33 120.033 187.328 120.033C187.328 120.034 187.324 120.034 187.323 120.035C187.317 120.037 187.308 120.039 187.294 120.042C187.268 120.049 187.229 120.06 187.177 120.073C187.074 120.1 186.916 120.141 186.714 120.189C186.311 120.288 185.726 120.423 185.008 120.571C183.57 120.867 181.615 121.207 179.527 121.39C177.431 121.573 175.255 121.592 173.357 121.275C171.437 120.954 169.979 120.317 169.106 119.342L167.196 121.056Z" fill="#1A1B22"/>
<path d="M64.5566 45.8759C52.2349 78.3833 73.0158 97.6261 73.0158 97.6261L36.2788 156.635C36.2788 156.635 45.3279 181.442 64.7873 190.429C84.2467 199.418 109.568 197.416 109.568 197.416L113.658 173.566C76.0234 157.248 82.0993 103.331 82.0993 103.331L77.7984 79.034L105.868 54.557C105.868 54.557 109.943 69.4909 122.936 72.8419C135.929 76.1928 146.643 73.0135 146.643 73.0135C146.643 73.0135 152.997 94.4803 160.42 96.397C167.846 98.3137 171.784 76.7774 180.052 81.6374C185.093 84.6018 185.494 89.4134 186.462 95.1882C188.482 107.225 173.241 123.499 173.241 123.499C150.205 159.185 164.566 207.36 164.566 207.36C206.356 214.181 237.602 200.439 256.39 173.566L209.634 105.135C209.634 105.135 224.29 71.2456 202.667 39.8916C181.043 8.53754 155.902 13.9408 155.902 13.9408C155.902 13.9408 165.24 8.41781 153.204 1.34615C141.169 -5.72638 115.433 17.3727 115.433 17.3727C115.433 17.3727 76.8783 13.3685 64.5566 45.8759Z" fill="#1A1B22"/>
<path d="M107.633 106.68C107.871 106.011 107.523 105.276 106.856 105.038C106.189 104.799 105.455 105.148 105.218 105.816L107.633 106.68ZM99.3083 126.22L98.1003 125.788C97.948 126.214 98.0317 126.688 98.3196 127.038C98.6066 127.387 99.0565 127.558 99.5029 127.49L99.3083 126.22ZM113.93 125.266C114.63 125.157 115.11 124.501 115.002 123.801C114.895 123.1 114.24 122.618 113.54 122.726L113.93 125.266ZM105.218 105.816L98.1003 125.788L100.515 126.651L107.633 106.68L105.218 105.816ZM99.5029 127.49L113.93 125.266L113.54 122.726L99.1128 124.95L99.5029 127.49Z" fill="#1A1B22"/>
<path d="M77.7975 79.0314C77.7975 79.0314 81.8149 101.885 82.0922 108.501C82.3696 115.118 81.3166 119.209 82.3977 130.397C83.478 141.584 96.5261 175.494 118.521 174.627C140.517 173.761 157.165 147.515 157.165 147.515" stroke="#1A1B22" stroke-width="1.5" stroke-linecap="round"/>
<path d="M86.8272 94.0585C89.2079 92.3919 93.0678 90.9603 96.7797 91.9191" stroke="#1A1B22" stroke-width="3" stroke-linecap="round"/>
<path d="M124.2 88.9697C129.55 88.3675 133.958 89.5059 139.048 92.8031" stroke="#1A1B22" stroke-width="3" stroke-linecap="round"/>
<path d="M127.855 104.351C127.632 105.847 127.767 107.343 127.898 108.845C127.942 109.347 128.03 109.642 127.857 110.11" stroke="#1A1B22" stroke-width="3" stroke-linecap="round"/>
<path d="M91.0956 106.001C90.8728 107.497 91.0084 108.993 91.1387 110.495C91.1828 110.996 91.2708 111.291 91.0982 111.76" stroke="#1A1B22" stroke-width="3" stroke-linecap="round"/>
<path d="M108.552 193.337C108.552 193.337 107.532 216.796 132.986 219.854C158.439 222.915 168.621 197.416 168.621 197.416" stroke="#1A1B22" stroke-width="1.5"/>
<path d="M95.827 191.15C95.827 191.15 101.372 226.78 129.095 230.229C156.82 233.676 177.889 207.242 177.889 207.242" stroke="#1A1B22" stroke-width="1.5"/>
<path d="M-18.7645 244.56C-19.1734 245.139 -19.0362 245.94 -18.4581 246.349C-17.88 246.759 -17.0798 246.621 -16.6709 246.043L-18.7645 244.56ZM-17.7177 245.302C-16.6709 246.043 -16.6708 246.043 -16.6709 246.043C-16.6711 246.043 -16.6708 246.043 -16.6709 246.043C-16.6704 246.043 -16.6695 246.041 -16.6681 246.04C-16.6655 246.034 -16.661 246.029 -16.6547 246.021C-16.6421 246.002 -16.6223 245.974 -16.5952 245.938C-16.5411 245.863 -16.4581 245.75 -16.3458 245.601C-16.1214 245.303 -15.7804 244.86 -15.321 244.287C-14.4022 243.146 -13.0101 241.491 -11.1312 239.467C-7.37295 235.418 -1.6687 229.894 6.09145 224.016C21.609 212.262 45.348 199.102 78.2023 193.533L77.7744 191C44.45 196.65 20.3354 210.008 4.54471 221.967C-3.34927 227.945 -9.16296 233.574 -13.009 237.719C-14.9323 239.788 -16.364 241.489 -17.3184 242.676C-17.7957 243.271 -18.1536 243.736 -18.3941 244.057C-18.5142 244.216 -18.6051 244.339 -18.6667 244.423C-18.6975 244.466 -18.7211 244.499 -18.7374 244.521C-18.7455 244.532 -18.7519 244.541 -18.7564 244.548C-18.7586 244.552 -18.7605 244.553 -18.7618 244.555C-18.7625 244.557 -18.7631 244.559 -18.7635 244.559C-18.7641 244.559 -18.7645 244.56 -17.7177 245.302Z" fill="black"/>
</svg>
