<svg width="58" height="16" viewBox="0 0 58 16" fill="none" xmlns="http://www.w3.org/2000/svg">
<path fill-rule="evenodd" clip-rule="evenodd" d="M8.1761 8.54297V10.7943C8.51889 10.386 8.92919 10.1802 9.40566 10.1802C9.65118 10.1802 9.87088 10.2272 10.0681 10.3198C10.266 10.4125 10.4135 10.5309 10.5135 10.6745C10.614 10.8201 10.6815 10.9789 10.7179 11.1543C10.7543 11.329 10.7729 11.6003 10.7729 11.9689V14.3758H9.70809V12.2078C9.70809 11.7777 9.68889 11.505 9.64852 11.3892C9.60816 11.2727 9.53669 11.1808 9.43477 11.1139C9.3322 11.0444 9.20449 11.0107 9.0503 11.0107C8.87427 11.0107 8.71544 11.055 8.57779 11.1424C8.4375 11.2304 8.33626 11.3627 8.27207 11.5388C8.20721 11.7155 8.17477 11.9755 8.1761 12.321L8.17477 14.3764H7.11133V8.54363H8.1761" fill="white"/>
<path fill-rule="evenodd" clip-rule="evenodd" d="M12.3678 8.54297V10.7943C12.7106 10.386 13.1209 10.1802 13.5974 10.1802C13.8416 10.1802 14.0633 10.2272 14.2605 10.3198C14.457 10.4125 14.6053 10.5309 14.7045 10.6745C14.8051 10.8201 14.8733 10.9789 14.909 11.1543C14.9454 11.329 14.9639 11.6003 14.9639 11.9689V14.3758H13.9005V12.2078C13.9005 11.7777 13.8806 11.505 13.8396 11.3892C13.7992 11.2727 13.7284 11.1808 13.6252 11.1139C13.5239 11.0444 13.3949 11.0107 13.2407 11.0107C13.0647 11.0107 12.9065 11.055 12.7682 11.1424C12.6292 11.2304 12.528 11.3627 12.4631 11.5388C12.3996 11.7155 12.3672 11.9755 12.3672 12.321V14.3764H11.3037V8.54363H12.3678" fill="white"/>
<g clip-path="url(#clip0_561_14890)">
<path d="M13.8891 0.5H1.10719C0.496875 0.5 0 0.984219 0 1.58047V14.4167C0 15.0144 0.496875 15.4995 1.10719 15.4995H13.89C14.5017 15.4995 15 15.0144 15 14.4167V1.58047C15 0.984219 14.5017 0.5 13.8891 0.5Z" fill="#0177B5"/>
<path d="M3.07467 5.49455H4.90593V11.3856H3.07467V5.49455ZM3.98895 2.5625C4.57318 2.5625 5.04804 3.03819 5.04804 3.62344C5.04804 4.20869 4.57318 4.68553 3.98934 4.68553C3.7083 4.68492 3.43893 4.57284 3.24017 4.3738C3.04141 4.17476 2.92942 3.90497 2.92871 3.62344C2.92871 3.48402 2.95614 3.34596 3.00944 3.21717C3.06274 3.08837 3.14085 2.97137 3.23932 2.87283C3.33779 2.7743 3.45467 2.69618 3.5833 2.64293C3.71193 2.58968 3.84977 2.56235 3.98895 2.5625ZM6.04935 5.49455H7.80243V6.2997H7.82669C8.07086 5.83675 8.66703 5.34833 9.55974 5.34833C11.4106 5.34833 11.7522 6.5686 11.7522 8.15461V11.386H9.92561V8.52034C9.92561 7.83748 9.91328 6.95787 8.9759 6.95787C8.02464 6.95787 7.8783 7.70245 7.8783 8.47019V11.3845H6.05205V5.49339L6.04935 5.49455Z" fill="white"/>
</g>
<path fill-rule="evenodd" clip-rule="evenodd" d="M20.4142 3.26179C20.8681 3.63058 21.0384 3.60245 21.8908 3.54557L29.9266 3.06305C30.097 3.06305 29.9553 2.89303 29.8985 2.86478L28.5639 1.89997C28.3082 1.70144 27.9675 1.47408 27.3145 1.53095L19.5334 2.09848C19.2496 2.12662 19.1929 2.26851 19.3059 2.38223L20.4142 3.26179ZM20.8966 5.13455V13.5897C20.8966 14.0441 21.1237 14.2141 21.6348 14.186L30.4662 13.6749C30.9775 13.6468 31.0345 13.3343 31.0345 12.9651V4.56676C31.0345 4.19823 30.8927 3.99949 30.5797 4.02786L21.3508 4.56676C21.0102 4.59539 20.8966 4.76576 20.8966 5.13455H20.8966ZM29.615 5.58809C29.6716 5.84371 29.615 6.09909 29.3589 6.12783L28.9334 6.21261V12.4547C28.5639 12.6533 28.2232 12.7668 27.9393 12.7668C27.4848 12.7668 27.371 12.6248 27.0305 12.1995L24.2472 7.82996V12.0576L25.1279 12.2563C25.1279 12.2563 25.1279 12.7668 24.4173 12.7668L22.4584 12.8804C22.4015 12.7668 22.4584 12.4833 22.6571 12.4265L23.1683 12.2848V6.6951L22.4585 6.63823C22.4016 6.38261 22.5434 6.01405 22.9412 5.98545L25.0427 5.84379L27.9393 10.2702V6.35448L27.2008 6.26972C27.1441 5.95723 27.371 5.73033 27.655 5.70219L29.615 5.58809ZM18.8801 1.33244L26.9737 0.736405C27.9676 0.651162 28.2233 0.708268 28.848 1.16204L31.4316 2.97793C31.8579 3.29019 32 3.3752 32 3.7156V13.6749C32 14.2991 31.7726 14.6682 30.9777 14.7247L21.5785 15.2923C20.9818 15.3208 20.6978 15.2357 20.3852 14.8382L18.4827 12.3697C18.1418 11.9153 18 11.5754 18 11.1777V2.32515C18 1.81473 18.2274 1.38895 18.8801 1.33244Z" fill="black"/>
<g clip-path="url(#clip1_561_14890)">
<path d="M37.5005 15.4951C38.8802 15.4951 40 14.3753 40 12.9956V10.4961H37.5005C36.1208 10.4961 35.001 11.6159 35.001 12.9956C35.001 14.3753 36.1208 15.4951 37.5005 15.4951Z" fill="#0ACF83"/>
<path d="M35.001 7.9995C35.001 6.61978 36.1208 5.5 37.5005 5.5H40V10.499H37.5005C36.1208 10.499 35.001 9.37922 35.001 7.9995Z" fill="#A259FF"/>
<path d="M35.001 2.9995C35.001 1.61978 36.1208 0.5 37.5005 0.5H40V5.499H37.5005C36.1208 5.499 35.001 4.37922 35.001 2.9995Z" fill="#F24E1E"/>
<path d="M40 0.5H42.4995C43.8792 0.5 44.999 1.61978 44.999 2.9995C44.999 4.37922 43.8792 5.499 42.4995 5.499H40V0.5Z" fill="#FF7262"/>
<path d="M44.999 7.9995C44.999 9.37922 43.8792 10.499 42.4995 10.499C41.1198 10.499 40 9.37922 40 7.9995C40 6.61978 41.1198 5.5 42.4995 5.5C43.8792 5.5 44.999 6.61978 44.999 7.9995Z" fill="#1ABCFE"/>
</g>
<g clip-path="url(#clip2_561_14890)">
<path d="M54.2501 1.125H48.9372C48.4378 1.125 48 1.56225 48 2.06274V13.9377C48 14.4376 48.4372 14.8754 48.9377 14.8754H57.0628C57.5628 14.8754 58.0006 14.4382 58.0006 13.9377V4.87486L55.8132 3.31233L54.2501 1.125Z" fill="#4285F4"/>
<path d="M50.5 11.1251H55.5V10.5003H50.5006L50.5 11.1251ZM50.5 12.3752H54.2499V11.7504H50.5V12.3752ZM50.5 8V8.62479H55.5V8H50.5ZM50.5 9.87493H55.5V9.25014H50.5006L50.5 9.87493Z" fill="#F1F1F1"/>
<path d="M54.25 1.125V3.93767C54.25 4.43762 54.6872 4.87486 55.1872 4.87486H57.9999L54.25 1.125Z" fill="#A1C2FA"/>
</g>
<defs>
<clipPath id="clip0_561_14890">
<rect y="0.5" width="15" height="15" rx="6" fill="white"/>
</clipPath>
<clipPath id="clip1_561_14890">
<rect width="10" height="14.997" fill="white" transform="translate(35 0.5)"/>
</clipPath>
<clipPath id="clip2_561_14890">
<rect width="10" height="13.7499" fill="white" transform="translate(48 1.125)"/>
</clipPath>
</defs>
</svg>
