<svg width="95" height="27" viewBox="0 0 95 27" fill="none" xmlns="http://www.w3.org/2000/svg">
<path fill-rule="evenodd" clip-rule="evenodd" d="M4.311 4.56905C5.12157 5.2276 5.42565 5.17736 6.94779 5.07579L21.2975 4.21416C21.6019 4.21416 21.3488 3.91054 21.2473 3.86009L18.8641 2.13723C18.4075 1.7827 17.7991 1.3767 16.6331 1.47826L2.7382 2.49171C2.23146 2.54195 2.13025 2.79533 2.33205 2.9984L4.311 4.56905ZM5.17253 7.91325V23.0117C5.17253 23.8231 5.57802 24.1267 6.49067 24.0765L22.261 23.1639C23.1741 23.1138 23.2759 22.5556 23.2759 21.8965V6.89935C23.2759 6.24125 23.0227 5.88637 22.4637 5.93702L5.98356 6.89935C5.37535 6.95046 5.17248 7.2547 5.17248 7.91325H5.17253ZM20.741 8.72316C20.8421 9.17961 20.741 9.63565 20.2837 9.68698L19.5239 9.83838V20.985C18.8641 21.3396 18.2558 21.5423 17.7488 21.5423C16.9371 21.5423 16.7339 21.2888 16.1259 20.5292L11.1556 12.7265V20.2758L12.7284 20.6307C12.7284 20.6307 12.7284 21.5423 11.4595 21.5423L7.96139 21.7452C7.85977 21.5423 7.96139 21.0361 8.31623 20.9346L9.22908 20.6816V10.7L7.96165 10.5984C7.85998 10.1419 8.11315 9.48379 8.82359 9.43273L12.5763 9.17977L17.7488 17.084V10.0917L16.43 9.94035C16.3288 9.38233 16.7339 8.97715 17.241 8.9269L20.741 8.72316ZM1.57157 1.12378L16.0244 0.0594287C17.7993 -0.0927905 18.256 0.00918453 19.3715 0.8195L23.985 4.06214C24.7463 4.61975 25 4.77156 25 5.37941V23.1639C25 24.2785 24.5939 24.9377 23.1744 25.0386L6.39024 26.0521C5.3246 26.1029 4.81744 25.9511 4.25937 25.2413L0.861892 20.8332C0.253169 20.0218 0 19.4148 0 18.7046V2.89648C0 1.98501 0.406157 1.22468 1.57157 1.12378Z" fill="black"/>
<g clip-path="url(#clip0_1081_12936)">
<path d="M32.2509 25.4944C34.5964 25.4944 36.5 23.5908 36.5 21.2452V16.9961H32.2509C29.9053 16.9961 28.0017 18.8997 28.0017 21.2452C28.0017 23.5908 29.9053 25.4944 32.2509 25.4944Z" fill="#0ACF83"/>
<path d="M28.0017 12.7491C28.0017 10.4036 29.9053 8.5 32.2509 8.5H36.5V16.9983H32.2509C29.9053 16.9983 28.0017 15.0947 28.0017 12.7491Z" fill="#A259FF"/>
<path d="M28.0015 4.24915C28.0015 1.90362 29.9051 0 32.2506 0H36.4998V8.4983H32.2506C29.9051 8.4983 28.0015 6.59468 28.0015 4.24915Z" fill="#F24E1E"/>
<path d="M36.5 0H40.7491C43.0947 0 44.9983 1.90362 44.9983 4.24915C44.9983 6.59468 43.0947 8.4983 40.7491 8.4983H36.5V0Z" fill="#FF7262"/>
<path d="M44.9983 12.7491C44.9983 15.0947 43.0947 16.9983 40.7491 16.9983C38.4036 16.9983 36.5 15.0947 36.5 12.7491C36.5 10.4036 38.4036 8.5 40.7491 8.5C43.0947 8.5 44.9983 10.4036 44.9983 12.7491Z" fill="#1ABCFE"/>
</g>
<g clip-path="url(#clip1_1081_12936)">
<path d="M59.8753 0H49.7807C48.8318 0 48 0.830767 48 1.78171V24.3441C48 25.294 48.8308 26.1258 49.7817 26.1258H65.2193C66.1692 26.1258 67.001 25.295 67.001 24.3441V7.12474L62.8451 4.15592L59.8753 0Z" fill="#4285F4"/>
<path d="M52.7495 19.0001H62.2495V17.813H52.7506L52.7495 19.0001ZM52.7495 21.3754H59.8743V20.1883H52.7495V21.3754ZM52.7495 13.0625V14.2496H62.2495V13.0625H52.7495ZM52.7495 16.6249H62.2495V15.4378H52.7506L52.7495 16.6249Z" fill="#F1F1F1"/>
<path d="M59.8752 0V5.34408C59.8752 6.29397 60.706 7.12474 61.6559 7.12474H67L59.8752 0Z" fill="#A1C2FA"/>
</g>
<g clip-path="url(#clip2_1081_12936)">
<path d="M93.1484 0H71.8453C70.8281 0 70 0.807031 70 1.80078V23.1945C70 24.1906 70.8281 24.9992 71.8453 24.9992H93.15C94.1695 24.9992 95 24.1906 95 23.1945V1.80078C95 0.807031 94.1695 0 93.1484 0Z" fill="#0177B5"/>
<path d="M73.707 9.37109H77.4218V21.3008H73.707V9.37109ZM75.5617 3.4336C76.7468 3.4336 77.7101 4.39688 77.7101 5.58203C77.7101 6.76719 76.7468 7.73281 75.5625 7.73281C74.9923 7.73158 74.4459 7.5046 74.0427 7.10154C73.6395 6.69848 73.4123 6.15215 73.4109 5.58203C73.4109 5.2997 73.4665 5.02013 73.5747 4.75932C73.6828 4.49851 73.8412 4.26156 74.041 4.06203C74.2407 3.8625 74.4778 3.70429 74.7388 3.59646C74.9997 3.48863 75.2793 3.43329 75.5617 3.4336ZM79.7414 9.37109H83.2976V11.0016H83.3468C83.8421 10.0641 85.0515 9.075 86.8625 9.075C90.6171 9.075 91.3101 11.5461 91.3101 14.7578V21.3016H87.6046V15.4984C87.6046 14.1156 87.5796 12.3344 85.6781 12.3344C83.7484 12.3344 83.4515 13.8422 83.4515 15.3969V21.2984H79.7468V9.36875L79.7414 9.37109Z" fill="white"/>
</g>
<defs>
<clipPath id="clip0_1081_12936">
<rect width="17" height="25.4949" fill="white" transform="translate(28)"/>
</clipPath>
<clipPath id="clip1_1081_12936">
<rect width="19" height="26.1247" fill="white" transform="translate(48)"/>
</clipPath>
<clipPath id="clip2_1081_12936">
<rect x="70" width="25" height="25" rx="6" fill="white"/>
</clipPath>
</defs>
</svg>
