<svg width="97" height="27" viewBox="0 0 97 27" fill="none" xmlns="http://www.w3.org/2000/svg">
<path fill-rule="evenodd" clip-rule="evenodd" d="M4.311 5.0378C5.12157 5.69635 5.42565 5.64611 6.94779 5.54454L21.2975 4.68291C21.6019 4.68291 21.3488 4.37929 21.2473 4.32884L18.8641 2.60598C18.4075 2.25145 17.7991 1.84545 16.6331 1.94701L2.7382 2.96046C2.23146 3.0107 2.13025 3.26408 2.33205 3.46715L4.311 5.0378ZM5.17253 8.382V23.4804C5.17253 24.2919 5.57802 24.5954 6.49067 24.5452L22.261 23.6327C23.1741 23.5825 23.2759 23.0244 23.2759 22.3652V7.3681C23.2759 6.71 23.0227 6.35512 22.4637 6.40577L5.98356 7.3681C5.37535 7.41921 5.17248 7.72345 5.17248 8.382H5.17253ZM20.741 9.19191C20.8421 9.64836 20.741 10.1044 20.2837 10.1557L19.5239 10.3071V21.4537C18.8641 21.8083 18.2558 22.011 17.7488 22.011C16.9371 22.011 16.7339 21.7575 16.1259 20.998L11.1556 13.1952V20.7446L12.7284 21.0995C12.7284 21.0995 12.7284 22.011 11.4595 22.011L7.96139 22.214C7.85977 22.011 7.96139 21.5048 8.31623 21.4034L9.22908 21.1504V11.1687L7.96165 11.0671C7.85998 10.6107 8.11315 9.95254 8.82359 9.90148L12.5763 9.64852L17.7488 17.5528V10.5604L16.43 10.4091C16.3288 9.85108 16.7339 9.4459 17.241 9.39565L20.741 9.19191ZM1.57157 1.59253L16.0244 0.528179C17.7993 0.375959 18.256 0.477935 19.3715 1.28825L23.985 4.53089C24.7463 5.0885 25 5.24031 25 5.84816V23.6327C25 24.7473 24.5939 25.4065 23.1744 25.5073L6.39024 26.5209C5.3246 26.5717 4.81744 26.4198 4.25937 25.71L0.861892 21.302C0.253169 20.4905 0 19.8835 0 19.1733V3.36523C0 2.45376 0.406157 1.69343 1.57157 1.59253Z" fill="black"/>
<g clip-path="url(#clip0_1079_12935)">
<path d="M32.2509 26.2483C34.5964 26.2483 36.5 24.3447 36.5 21.9991V17.75H32.2509C29.9053 17.75 28.0017 19.6536 28.0017 21.9991C28.0017 24.3447 29.9053 26.2483 32.2509 26.2483Z" fill="#0ACF83"/>
<path d="M28.0017 13.5031C28.0017 11.1575 29.9053 9.25391 32.2509 9.25391H36.5V17.7522H32.2509C29.9053 17.7522 28.0017 15.8486 28.0017 13.5031Z" fill="#A259FF"/>
<path d="M28.0015 5.00306C28.0015 2.65753 29.9051 0.753906 32.2506 0.753906H36.4998V9.25221H32.2506C29.9051 9.25221 28.0015 7.34859 28.0015 5.00306Z" fill="#F24E1E"/>
<path d="M36.5 0.753906H40.7491C43.0947 0.753906 44.9983 2.65753 44.9983 5.00306C44.9983 7.34859 43.0947 9.25221 40.7491 9.25221H36.5V0.753906Z" fill="#FF7262"/>
<path d="M44.9983 13.5031C44.9983 15.8486 43.0947 17.7522 40.7491 17.7522C38.4036 17.7522 36.5 15.8486 36.5 13.5031C36.5 11.1575 38.4036 9.25391 40.7491 9.25391C43.0947 9.25391 44.9983 11.1575 44.9983 13.5031Z" fill="#1ABCFE"/>
</g>
<g clip-path="url(#clip1_1079_12935)">
<path d="M59.8753 0.4375H49.7807C48.8318 0.4375 48 1.26827 48 2.21921V24.7816C48 25.7315 48.8308 26.5633 49.7817 26.5633H65.2193C66.1692 26.5633 67.001 25.7325 67.001 24.7816V7.56224L62.8451 4.59342L59.8753 0.4375Z" fill="#4285F4"/>
<path d="M52.7495 19.4376H62.2495V18.2505H52.7506L52.7495 19.4376ZM52.7495 21.8129H59.8743V20.6258H52.7495V21.8129ZM52.7495 13.5V14.6871H62.2495V13.5H52.7495ZM52.7495 17.0624H62.2495V15.8753H52.7506L52.7495 17.0624Z" fill="#F1F1F1"/>
<path d="M59.8752 0.4375V5.78158C59.8752 6.73147 60.706 7.56224 61.6559 7.56224H67L59.8752 0.4375Z" fill="#A1C2FA"/>
</g>
<path fill-rule="evenodd" clip-rule="evenodd" d="M83.5 27C90.9561 27 97 20.9561 97 13.5C97 6.04396 90.9561 0 83.5 0C76.044 0 70 6.04396 70 13.5C70 20.9561 76.044 27 83.5 27Z" fill="#DF1B12"/>
<path fill-rule="evenodd" clip-rule="evenodd" d="M77.6788 6.50781V11.1005C78.3781 10.2675 79.2152 9.84771 80.1872 9.84771C80.688 9.84771 81.1362 9.94356 81.5385 10.1326C81.9422 10.3216 82.2432 10.5632 82.4471 10.8562C82.6523 11.1532 82.79 11.4772 82.8642 11.8349C82.9385 12.1913 82.9762 12.7448 82.9762 13.4967V18.4067H80.8041V13.9841C80.8041 13.1066 80.7649 12.5504 80.6826 12.3142C80.6002 12.0766 80.4544 11.8889 80.2465 11.7526C80.0373 11.6108 79.7768 11.542 79.4622 11.542C79.1031 11.542 78.7791 11.6324 78.4983 11.8106C78.2121 11.9901 78.0056 12.2601 77.8746 12.6192C77.7423 12.9797 77.6761 13.5103 77.6788 14.215L77.6761 18.408H75.5067V6.50916H77.6788" fill="white"/>
<path fill-rule="evenodd" clip-rule="evenodd" d="M86.2325 6.50781V11.1005C86.9318 10.2675 87.7688 9.84771 88.7408 9.84771C89.2389 9.84771 89.6912 9.94356 90.0935 10.1326C90.4944 10.3216 90.7968 10.5632 90.9993 10.8562C91.2045 11.1532 91.3435 11.4772 91.4164 11.8349C91.4907 12.1913 91.5285 12.7448 91.5285 13.4967V18.4067H89.359V13.9841C89.359 13.1066 89.3186 12.5504 89.2349 12.3142C89.1525 12.0766 89.0081 11.8889 88.7975 11.7526C88.5909 11.6108 88.3276 11.542 88.0131 11.542C87.654 11.542 87.3314 11.6324 87.0492 11.8106C86.7657 11.9901 86.5591 12.2601 86.4268 12.6192C86.2972 12.9797 86.2311 13.5103 86.2311 14.215V18.408H84.0616V6.50916H86.2325" fill="white"/>
<defs>
<clipPath id="clip0_1079_12935">
<rect width="17" height="25.4949" fill="white" transform="translate(28 0.753906)"/>
</clipPath>
<clipPath id="clip1_1079_12935">
<rect width="19" height="26.1247" fill="white" transform="translate(48 0.4375)"/>
</clipPath>
</defs>
</svg>
