<svg width="58" height="16" viewBox="0 0 58 16" fill="none" xmlns="http://www.w3.org/2000/svg">
<path fill-rule="evenodd" clip-rule="evenodd" d="M7.5 15.5C11.6423 15.5 15 12.1423 15 8C15 3.85775 11.6423 0.5 7.5 0.5C3.35775 0.5 0 3.85775 0 8C0 12.1423 3.35775 15.5 7.5 15.5Z" fill="#DF1B12"/>
<path fill-rule="evenodd" clip-rule="evenodd" d="M4.26631 4.11328V6.66477C4.65481 6.20202 5.11981 5.96878 5.65981 5.96878C5.93806 5.96878 6.18706 6.02203 6.41056 6.12703C6.63481 6.23203 6.80206 6.36628 6.91531 6.52903C7.02931 6.69403 7.10582 6.87403 7.14707 7.07278C7.18832 7.27078 7.20931 7.57827 7.20931 7.99602V10.7238H6.00257V8.26678C6.00257 7.77928 5.98081 7.47028 5.93506 7.33903C5.88931 7.20703 5.80831 7.10278 5.69281 7.02703C5.57656 6.94828 5.43182 6.91003 5.25707 6.91003C5.05757 6.91003 4.87756 6.96027 4.72156 7.05927C4.56256 7.15902 4.44782 7.30902 4.37507 7.50852C4.30157 7.70877 4.26481 8.00353 4.26631 8.39503L4.26481 10.7245H3.05957V4.11403H4.26631" fill="white"/>
<path fill-rule="evenodd" clip-rule="evenodd" d="M9.01753 4.11328V6.66477C9.40603 6.20202 9.87104 5.96878 10.411 5.96878C10.6878 5.96878 10.939 6.02203 11.1625 6.12703C11.3853 6.23203 11.5533 6.36628 11.6658 6.52903C11.7798 6.69403 11.857 6.87403 11.8975 7.07278C11.9388 7.27078 11.9598 7.57827 11.9598 7.99602V10.7238H10.7545V8.26678C10.7545 7.77928 10.732 7.47028 10.6855 7.33903C10.6398 7.20703 10.5595 7.10278 10.4425 7.02703C10.3278 6.94828 10.1815 6.91003 10.0068 6.91003C9.80727 6.91003 9.62803 6.96027 9.47128 7.05927C9.31378 7.15902 9.19902 7.30902 9.12552 7.50852C9.05352 7.70877 9.01678 8.00353 9.01678 8.39503V10.7245H7.81152V4.11403H9.01753" fill="white"/>
<path fill-rule="evenodd" clip-rule="evenodd" d="M20.4142 3.26179C20.8681 3.63058 21.0384 3.60245 21.8908 3.54557L29.9266 3.06305C30.097 3.06305 29.9553 2.89303 29.8985 2.86478L28.5639 1.89997C28.3082 1.70144 27.9675 1.47408 27.3145 1.53095L19.5334 2.09848C19.2496 2.12662 19.1929 2.26851 19.3059 2.38223L20.4142 3.26179ZM20.8966 5.13455V13.5897C20.8966 14.0441 21.1237 14.2141 21.6348 14.186L30.4662 13.6749C30.9775 13.6468 31.0345 13.3343 31.0345 12.9651V4.56676C31.0345 4.19823 30.8927 3.99949 30.5797 4.02786L21.3508 4.56676C21.0102 4.59539 20.8966 4.76576 20.8966 5.13455H20.8966ZM29.615 5.58809C29.6716 5.84371 29.615 6.09909 29.3589 6.12783L28.9334 6.21261V12.4547C28.5639 12.6533 28.2232 12.7668 27.9393 12.7668C27.4848 12.7668 27.371 12.6248 27.0305 12.1995L24.2472 7.82996V12.0576L25.1279 12.2563C25.1279 12.2563 25.1279 12.7668 24.4173 12.7668L22.4584 12.8804C22.4015 12.7668 22.4584 12.4833 22.6571 12.4265L23.1683 12.2848V6.6951L22.4585 6.63823C22.4016 6.38261 22.5434 6.01405 22.9412 5.98545L25.0427 5.84379L27.9393 10.2702V6.35448L27.2008 6.26972C27.1441 5.95723 27.371 5.73033 27.655 5.70219L29.615 5.58809ZM18.8801 1.33244L26.9737 0.736405C27.9676 0.651162 28.2233 0.708268 28.848 1.16204L31.4316 2.97793C31.8579 3.29019 32 3.3752 32 3.7156V13.6749C32 14.2991 31.7726 14.6682 30.9777 14.7247L21.5785 15.2923C20.9818 15.3208 20.6978 15.2357 20.3852 14.8382L18.4827 12.3697C18.1418 11.9153 18 11.5754 18 11.1777V2.32515C18 1.81473 18.2274 1.38895 18.8801 1.33244Z" fill="black"/>
<g clip-path="url(#clip0_561_14833)">
<path d="M37.5005 15.4951C38.8802 15.4951 40 14.3753 40 12.9956V10.4961H37.5005C36.1208 10.4961 35.001 11.6159 35.001 12.9956C35.001 14.3753 36.1208 15.4951 37.5005 15.4951Z" fill="#0ACF83"/>
<path d="M35.001 7.9995C35.001 6.61978 36.1208 5.5 37.5005 5.5H40V10.499H37.5005C36.1208 10.499 35.001 9.37922 35.001 7.9995Z" fill="#A259FF"/>
<path d="M35.001 2.9995C35.001 1.61978 36.1208 0.5 37.5005 0.5H40V5.499H37.5005C36.1208 5.499 35.001 4.37922 35.001 2.9995Z" fill="#F24E1E"/>
<path d="M40 0.5H42.4995C43.8792 0.5 44.999 1.61978 44.999 2.9995C44.999 4.37922 43.8792 5.499 42.4995 5.499H40V0.5Z" fill="#FF7262"/>
<path d="M44.999 7.9995C44.999 9.37922 43.8792 10.499 42.4995 10.499C41.1198 10.499 40 9.37922 40 7.9995C40 6.61978 41.1198 5.5 42.4995 5.5C43.8792 5.5 44.999 6.61978 44.999 7.9995Z" fill="#1ABCFE"/>
</g>
<g clip-path="url(#clip1_561_14833)">
<path d="M54.2501 1.125H48.9372C48.4378 1.125 48 1.56225 48 2.06274V13.9377C48 14.4376 48.4372 14.8754 48.9377 14.8754H57.0628C57.5628 14.8754 58.0006 14.4382 58.0006 13.9377V4.87486L55.8132 3.31233L54.2501 1.125Z" fill="#4285F4"/>
<path d="M50.5 11.1251H55.5V10.5003H50.5006L50.5 11.1251ZM50.5 12.3752H54.2499V11.7504H50.5V12.3752ZM50.5 8V8.62479H55.5V8H50.5ZM50.5 9.87493H55.5V9.25014H50.5006L50.5 9.87493Z" fill="#F1F1F1"/>
<path d="M54.25 1.125V3.93767C54.25 4.43762 54.6872 4.87486 55.1872 4.87486H57.9999L54.25 1.125Z" fill="#A1C2FA"/>
</g>
<defs>
<clipPath id="clip0_561_14833">
<rect width="10" height="14.997" fill="white" transform="translate(35 0.5)"/>
</clipPath>
<clipPath id="clip1_561_14833">
<rect width="10" height="13.7499" fill="white" transform="translate(48 1.125)"/>
</clipPath>
</defs>
</svg>
