<svg width="24" height="24" viewBox="0 0 24 24" fill="none" xmlns="http://www.w3.org/2000/svg">
<path d="M11.7891 0.0281377C11.5688 0.0797 11.4188 0.281263 11.0438 1.01251L10.6641 1.75783L9.82031 1.8797C9.35625 1.94533 8.91094 2.03439 8.83125 2.07658C8.6625 2.16564 8.48438 2.48439 8.48438 2.70001C8.48438 2.91564 8.63438 3.11251 9.2625 3.72189L9.84375 4.28908L9.70312 5.03908C9.62813 5.45158 9.5625 5.8547 9.5625 5.93439C9.5625 6.22033 9.88125 6.55314 10.2 6.59533C10.3641 6.61408 10.4813 6.57189 11.1938 6.21095L12 5.80314L12.8063 6.21095C13.5188 6.57189 13.6359 6.61408 13.8 6.59533C14.1188 6.55314 14.4375 6.22033 14.4375 5.93439C14.4375 5.8547 14.3719 5.45158 14.2969 5.03908L14.1562 4.28908L14.7375 3.72189C15.5531 2.9297 15.6234 2.78439 15.4172 2.35314C15.2813 2.07189 15.0984 2.00158 14.2266 1.8797C13.8422 1.82345 13.4766 1.7672 13.4156 1.75783C13.3359 1.73908 13.2281 1.56564 12.9375 0.989075C12.6797 0.468763 12.525 0.215638 12.4266 0.145325C12.2906 0.0468879 11.9672 -0.00936222 11.7891 0.0281377Z" fill="#757575"/>
<path d="M3.16851 4.38283C2.97632 4.48127 2.9482 4.52814 2.54976 5.32033C2.35288 5.70471 2.18882 6.02814 2.18413 6.03283C2.18413 6.03752 1.80445 6.09377 1.34507 6.1594C0.885696 6.22502 0.454446 6.3094 0.379446 6.35158C0.0794457 6.50158 -0.0564918 6.84377 0.0419457 7.1719C0.0841332 7.31252 0.243508 7.49065 0.726321 7.95471L1.35445 8.55471L1.21382 9.32815C1.03101 10.3453 1.05913 10.5656 1.42007 10.7813C1.70601 10.9594 1.8982 10.9125 2.74195 10.4813L3.51538 10.0875L4.28882 10.4813C5.13257 10.9125 5.32476 10.9594 5.6107 10.7813C5.97163 10.5656 5.99976 10.3453 5.81695 9.32815L5.67632 8.55471L6.30445 7.95471C6.78726 7.49065 6.94663 7.31252 6.98882 7.1719C7.08726 6.84377 6.95132 6.50158 6.65132 6.35158C6.57632 6.3094 6.14507 6.22502 5.6857 6.1594C5.22632 6.09377 4.84663 6.03752 4.84663 6.03283C4.84195 6.02814 4.67788 5.70471 4.4857 5.32033C4.12007 4.59377 4.00757 4.42971 3.8107 4.35471C3.63726 4.28908 3.3232 4.30314 3.16851 4.38283Z" fill="#757575"/>
<path d="M20.1373 4.38283C19.9451 4.48127 19.9169 4.52814 19.5185 5.32033C19.3216 5.70471 19.1576 6.02814 19.1529 6.03283C19.1529 6.03752 18.7732 6.09377 18.3138 6.1594C17.8544 6.22502 17.4232 6.3094 17.3482 6.35158C17.0482 6.50158 16.9123 6.84377 17.0107 7.1719C17.0529 7.31252 17.2123 7.49065 17.6951 7.95471L18.3232 8.55471L18.1826 9.32815C17.9998 10.3453 18.0279 10.5656 18.3888 10.7813C18.6748 10.9594 18.8669 10.9125 19.7107 10.4813L20.4841 10.0875L21.2576 10.4813C22.1013 10.9125 22.2935 10.9594 22.5794 10.7813C22.9404 10.5656 22.9685 10.3453 22.7857 9.32815L22.6451 8.55471L23.2732 7.95471C23.756 7.49065 23.9154 7.31252 23.9576 7.1719C24.056 6.84377 23.9201 6.50158 23.6201 6.35158C23.5451 6.3094 23.1138 6.22502 22.6544 6.1594C22.1951 6.09377 21.8154 6.03752 21.8154 6.03283C21.8107 6.02814 21.6466 5.70471 21.4544 5.32033C21.0888 4.59377 20.9763 4.42971 20.7794 4.35471C20.606 4.28908 20.2919 4.30314 20.1373 4.38283Z" fill="#757575"/>
<path d="M11.3296 7.875C9.0515 8.2875 7.49994 10.3969 7.83275 12.6234C7.97338 13.5609 8.42806 14.4469 9.09369 15.0609C9.2765 15.2297 9.59985 15.375 9.59985 15.3891C9.59985 15.4078 9.27181 15.4922 9.08431 15.5859C8.53588 15.8625 8.07181 16.2094 7.54213 16.7344C6.79681 17.4797 6.2765 18.3234 5.9765 19.2656C5.72806 20.0625 5.70463 20.2641 5.68588 21.9C5.66244 23.4281 5.66244 23.4328 5.77025 23.625C5.84056 23.7469 5.94369 23.8453 6.07025 23.9063C6.26244 24 6.36088 24 11.9999 24C17.639 24 17.7374 24 17.9296 23.9063C18.0562 23.8453 18.1593 23.7469 18.2296 23.625C18.3374 23.4328 18.3374 23.4281 18.314 21.9C18.2952 20.2641 18.2718 20.0625 18.0234 19.2656C17.5406 17.7375 16.3218 16.2938 14.9156 15.5859C14.7281 15.4922 14.3999 15.4078 14.3999 15.3891C14.3999 15.375 14.7234 15.2297 14.9062 15.0609C15.4078 14.5969 15.8203 13.9266 16.0312 13.2422C16.6171 11.3297 15.7312 9.24375 13.9406 8.31094C13.3499 8.00156 12.8343 7.87031 12.1406 7.85156C11.8171 7.84219 11.4515 7.85156 11.3296 7.875Z" fill="#757575"/>
</svg>
