<svg width="24" height="24" viewBox="0 0 24 24" fill="none" xmlns="http://www.w3.org/2000/svg">
<path d="M11.7889 0.0117111C11.5684 0.0633078 11.4183 0.265006 11.0429 0.996746L10.6629 1.74256L9.81843 1.86451C9.35396 1.93018 8.90826 2.01931 8.8285 2.06152C8.6596 2.15064 8.48132 2.46961 8.48132 2.68538C8.48132 2.90115 8.63145 3.09815 9.26013 3.70794L9.84189 4.2755L9.70114 5.02601C9.62607 5.43878 9.56039 5.84218 9.56039 5.92192C9.56039 6.20805 9.87942 6.54108 10.1985 6.5833C10.3627 6.60206 10.4799 6.55985 11.1931 6.19867L12 5.79058L12.807 6.19867C13.5201 6.55985 13.6374 6.60206 13.8016 6.5833C14.1206 6.54108 14.4397 6.20805 14.4397 5.92192C14.4397 5.84218 14.374 5.43878 14.2989 5.02601L14.1582 4.2755L14.7399 3.70794C15.5563 2.91522 15.6266 2.76981 15.4202 2.33827C15.2841 2.05683 15.1012 1.98647 14.2285 1.86451C13.8438 1.80823 13.4779 1.75194 13.4169 1.74256C13.3371 1.72379 13.2292 1.55024 12.9383 0.973292C12.6803 0.452631 12.5255 0.199337 12.427 0.128977C12.2909 0.0304737 11.9672 -0.0258141 11.7889 0.0117111Z" fill="black" fill-opacity="0.85"/>
<path d="M3.16102 4.36981C2.96866 4.46832 2.94051 4.51522 2.54173 5.30794C2.34468 5.69257 2.18047 6.01623 2.17578 6.02092C2.17578 6.02561 1.79576 6.0819 1.33599 6.14757C0.876208 6.21323 0.444581 6.29767 0.369515 6.33988C0.0692524 6.48998 -0.0668041 6.8324 0.0317196 7.16074C0.073944 7.30146 0.233459 7.47971 0.716694 7.94408L1.34537 8.54448L1.20462 9.31844C1.02165 10.3363 1.0498 10.5568 1.41105 10.7725C1.69724 10.9508 1.88959 10.9039 2.73408 10.4723L3.5082 10.0783L4.28231 10.4723C5.1268 10.9039 5.31916 10.9508 5.60534 10.7725C5.9666 10.5568 5.99475 10.3363 5.81177 9.31844L5.67103 8.54448L6.2997 7.94408C6.78294 7.47971 6.94245 7.30146 6.98468 7.16074C7.0832 6.8324 6.94714 6.48998 6.64688 6.33988C6.57181 6.29767 6.14019 6.21323 5.68041 6.14757C5.22063 6.0819 4.84061 6.02561 4.84061 6.02092C4.83592 6.01623 4.67172 5.69257 4.47936 5.30794C4.11341 4.58089 4.00082 4.41672 3.80377 4.34167C3.63018 4.276 3.31584 4.29007 3.16102 4.36981Z" fill="black" fill-opacity="0.85"/>
<path d="M20.1447 4.36981C19.9523 4.46832 19.9242 4.51522 19.5254 5.30794C19.3283 5.69257 19.1641 6.01623 19.1594 6.02092C19.1594 6.02561 18.7794 6.0819 18.3196 6.14757C17.8599 6.21323 17.4282 6.29767 17.3532 6.33988C17.0529 6.48998 16.9168 6.8324 17.0154 7.16074C17.0576 7.30146 17.2171 7.47971 17.7003 7.94408L18.329 8.54448L18.1883 9.31844C18.0053 10.3363 18.0334 10.5568 18.3947 10.7725C18.6809 10.9508 18.8732 10.9039 19.7177 10.4723L20.4918 10.0783L21.266 10.4723C22.1104 10.9039 22.3028 10.9508 22.589 10.7725C22.9502 10.5568 22.9784 10.3363 22.7954 9.31844L22.6547 8.54448L23.2833 7.94408C23.7666 7.47971 23.9261 7.30146 23.9683 7.16074C24.0668 6.8324 23.9308 6.48998 23.6305 6.33988C23.5555 6.29767 23.1238 6.21323 22.6641 6.14757C22.2043 6.0819 21.8243 6.02561 21.8243 6.02092C21.8196 6.01623 21.6554 5.69257 21.463 5.30794C21.0971 4.58089 20.9845 4.41672 20.7874 4.34167C20.6138 4.276 20.2995 4.29007 20.1447 4.36981Z" fill="black" fill-opacity="0.85"/>
<path d="M11.3292 7.86419C9.04909 8.27697 7.49617 10.3878 7.82927 12.6158C7.97002 13.5539 8.4251 14.4405 9.09131 15.0549C9.27428 15.2238 9.59792 15.3692 9.59792 15.3833C9.59792 15.4021 9.26959 15.4865 9.08193 15.5803C8.53301 15.857 8.06854 16.2042 7.53839 16.7295C6.79243 17.4753 6.27166 18.3196 5.97139 19.2625C5.72274 20.0599 5.69928 20.2616 5.68052 21.8986C5.65706 23.4277 5.65706 23.4324 5.76496 23.6247C5.83534 23.7467 5.93855 23.8452 6.06523 23.9062C6.25758 24 6.35611 24 12.0001 24C17.6441 24 17.7426 24 17.935 23.9062C18.0617 23.8452 18.1649 23.7467 18.2352 23.6247C18.3432 23.4324 18.3432 23.4277 18.3197 21.8986C18.3009 20.2616 18.2775 20.0599 18.0288 19.2625C17.5456 17.7333 16.3258 16.2886 14.9183 15.5803C14.7306 15.4865 14.4021 15.4021 14.4021 15.3833C14.4021 15.3692 14.7259 15.2238 14.9089 15.0549C15.4109 14.5906 15.8238 13.9198 16.0349 13.235C16.6213 11.3212 15.7346 9.23386 13.9424 8.30042C13.3513 7.99084 12.8352 7.8595 12.1409 7.84074C11.8171 7.83136 11.4512 7.84074 11.3292 7.86419Z" fill="black" fill-opacity="0.85"/>
</svg>
