<svg width="20" height="18" viewBox="0 0 20 18" fill="none" xmlns="http://www.w3.org/2000/svg">
<path fill-rule="evenodd" clip-rule="evenodd" d="M13 8C11.1362 8 9.5701 6.72523 9.126 5H1C0.44772 5 0 4.55228 0 4C0 3.44772 0.44772 3 1 3H9.126C9.5701 1.27477 11.1362 0 13 0C14.8638 0 16.4299 1.27477 16.874 3H19C19.5523 3 20 3.44772 20 4C20 4.55228 19.5523 5 19 5H16.874C16.4299 6.72523 14.8638 8 13 8ZM1 13C0.44772 13 0 13.4477 0 14C0 14.5523 0.44772 15 1 15H3.12602C3.57006 16.7252 5.13616 18 7 18C8.8638 18 10.4299 16.7252 10.874 15H19C19.5523 15 20 14.5523 20 14C20 13.4477 19.5523 13 19 13H10.874C10.4299 11.2748 8.8638 10 7 10C5.13616 10 3.57006 11.2748 3.12602 13H1ZM13 6C14.1046 6 15 5.10457 15 4C15 2.89543 14.1046 2 13 2C11.8954 2 11 2.89543 11 4C11 5.10457 11.8954 6 13 6ZM9 14C9 15.1046 8.1046 16 7 16C5.89543 16 5 15.1046 5 14C5 12.8954 5.89543 12 7 12C8.1046 12 9 12.8954 9 14Z" fill="#7F7F7F"/>
</svg>
