<svg width="14" height="14" viewBox="0 0 14 14" fill="none" xmlns="http://www.w3.org/2000/svg">
<path d="M7.99741 4.34678C7.99741 4.93428 7.56691 5.34343 6.99991 5.34343C6.43291 5.34342 6.00241 4.93428 6.00241 4.34678C6.00241 3.75928 6.43291 3.35013 6.99991 3.35013C7.56691 3.35013 7.99741 3.75928 7.99741 4.34678Z" fill="black" fill-opacity="0.5"/>
<path d="M6.125 9.61911C6.125 10.102 6.51675 10.4934 7 10.4934C7.48325 10.4934 7.875 10.102 7.875 9.61911L7.875 6.99636C7.875 6.51353 7.48325 6.12211 7 6.12211C6.51675 6.12211 6.125 6.51353 6.125 6.99636L6.125 9.61911Z" fill="black" fill-opacity="0.5"/>
<path fill-rule="evenodd" clip-rule="evenodd" d="M14 6.99401C14 3.13133 10.866 0 7 0C3.13401 0 0 3.13132 0 6.99401C0 10.8567 3.13401 13.988 7 13.988C10.866 13.988 14 10.8567 14 6.99401ZM1.75 6.99401C1.75 4.097 4.10051 1.7485 7 1.7485C9.8995 1.7485 12.25 4.097 12.25 6.99401C12.25 9.89103 9.89949 12.2395 7 12.2395C4.1005 12.2395 1.75 9.89102 1.75 6.99401Z" fill="black" fill-opacity="0.5"/>
</svg>
