<svg width="258" height="34" viewBox="0 0 258 34" fill="none" xmlns="http://www.w3.org/2000/svg">
<path d="M13.3967 28H17.4406V4.77237H11.5585C5.643 4.77237 2.53484 7.81368 2.53484 12.2921C2.53484 15.8682 4.23931 17.9737 7.28063 20.1461L2.0001 28H6.37826L12.2604 19.2103L10.2217 17.84C7.74852 16.1689 6.54536 14.8655 6.54536 12.0582C6.54536 9.585 8.28326 7.91395 11.5919 7.91395H13.3967V28ZM66.5027 26.8637V23.6218C65.2662 24.4574 63.1941 25.1926 61.2556 25.1926C58.348 25.1926 57.2451 23.8224 57.078 21.015H66.6698V18.9095C66.6698 13.0608 64.0964 10.855 60.1193 10.855C55.2733 10.855 52.9672 14.5647 52.9672 19.6447C52.9672 25.4934 55.8414 28.3342 60.9214 28.3342C63.4614 28.3342 65.333 27.6658 66.5027 26.8637ZM91.368 28.3342C93.2062 28.3342 94.5096 28 95.4788 27.2982V24.0563C94.4762 24.7582 93.273 25.1926 91.6019 25.1926C88.7612 25.1926 87.5914 22.9868 87.5914 19.5111C87.5914 15.8682 89.0285 13.9966 91.6354 13.9966C93.1727 13.9966 94.6767 14.5313 95.4788 15.0326V11.6571C94.6433 11.1892 93.1727 10.855 91.2009 10.855C86.1209 10.855 83.4806 14.4979 83.4806 19.6113C83.4806 25.2261 86.0541 28.3342 91.368 28.3342ZM30.0738 11.1892V17.84H24.7598V11.1892H20.7827V28H24.7598V20.9816H30.0738V28H34.0509V11.1892H30.0738ZM51.998 24.8584H50.2267V11.1892H38.6296V12.6263C38.6296 16.7371 38.3622 22.0511 36.9585 24.8584H35.7219V31.8434H39.3983V28H48.3217V31.8434H51.998V24.8584ZM79.2027 28H83.7146L77.3312 18.9429L82.9459 11.1892H78.9354L73.3206 18.9429V11.1892H69.3435V28H73.3206V19.745L79.2027 28ZM60.0525 13.9966C62.0243 13.9966 62.6259 15.6342 62.6259 17.7397V18.0739H57.078C57.1783 15.4003 58.1475 13.9966 60.0525 13.9966ZM46.2496 24.8584H40.6348C41.7377 22.3184 42.0385 17.7397 42.0385 14.8321V14.3308H46.2496V24.8584Z" fill="black"/>
<path d="M104.624 4.77237V28H108.668V7.91395H115.887V28H119.931V4.77237H104.624ZM126.936 11.1892H123.26V32.8461H127.237V26.0282C128.24 27.5321 129.71 28.3342 131.415 28.3342C135.292 28.3342 137.965 25.2261 137.965 19.5779C137.965 13.9632 135.359 10.855 131.615 10.855C129.744 10.855 128.206 11.7239 127.137 13.3616L126.936 11.1892ZM130.412 25.1926C128.307 25.1926 127.237 23.4882 127.237 19.6113C127.237 15.7011 128.374 13.9966 130.613 13.9966C132.785 13.9966 133.855 15.7011 133.855 19.5779C133.855 23.4882 132.718 25.1926 130.412 25.1926ZM153.027 16.5366C153.027 12.4592 150.954 10.9218 146.743 10.9218C144.103 10.9218 142.031 11.7574 140.828 12.4592V15.7679C141.897 14.9658 144.237 14.0968 146.276 14.0968C148.181 14.0968 149.049 14.7653 149.049 16.57V17.5058H148.414C142.332 17.5058 139.625 19.5111 139.625 22.92C139.625 26.3289 141.697 28.2339 144.772 28.2339C147.111 28.2339 148.114 27.4653 148.882 26.6632H149.049C149.083 27.0976 149.217 27.6658 149.35 28H153.227C153.093 26.6297 153.027 25.2595 153.027 23.8892V16.5366ZM149.049 23.9895C148.548 24.7247 147.612 25.3263 146.209 25.3263C144.538 25.3263 143.702 24.3237 143.702 22.8197C143.702 20.8479 145.072 20.1461 148.481 20.1461H149.049V23.9895ZM166.083 28H170.595L164.212 18.9429L169.827 11.1892H165.816L160.201 18.9429V11.1892H156.224V28H160.201V19.745L166.083 28ZM183.766 14.3308V11.1892H170.431V14.3308H175.11V28H179.087V14.3308H183.766ZM186.12 11.1892V28H189.563L195.712 17.6061V28H199.589V11.1892H196.147L189.997 21.5832V11.1892H186.12ZM212.788 28H217.3L210.917 18.9429L216.531 11.1892H212.521L206.906 18.9429V11.1892H202.929V28H206.906V19.745L212.788 28ZM220.799 33.1803C224.509 33.1803 225.879 30.54 227.016 27.0976L232.263 11.1892H228.419L224.709 23.8224L221 11.1892H216.822L222.604 28.7353C222.169 29.5374 221.534 30.0387 220.432 30.0387C219.696 30.0387 219.061 29.8047 218.627 29.3703V32.6121C218.627 32.6121 219.228 33.1803 220.799 33.1803ZM248.109 28H251.986L251.919 11.1892H246.472L242.829 22.3853L239.553 11.1892H233.772V28H237.147V15.4337L240.79 28H244.032L248.109 15.4337V28Z" fill="black"/>
</svg>
