<svg width="254" height="33" viewBox="0 0 254 33" fill="none" xmlns="http://www.w3.org/2000/svg">
<path d="M13.1345 27.5703H17.1784V4.34268H11.2963C5.38079 4.34268 2.27263 7.384 2.27263 11.8624C2.27263 15.4385 3.97711 17.544 7.01842 19.7164L1.73789 27.5703H6.11605L11.9982 18.7806L9.95947 17.4103C7.48632 15.7393 6.28316 14.4358 6.28316 11.6285C6.28316 9.15531 8.02105 7.48426 11.3297 7.48426H13.1345V27.5703ZM66.2405 26.434V23.1922C65.0039 24.0277 62.9318 24.7629 60.9934 24.7629C58.0858 24.7629 56.9829 23.3927 56.8158 20.5853H66.4076V18.4798C66.4076 12.6311 63.8342 10.4253 59.8571 10.4253C55.0111 10.4253 52.705 14.135 52.705 19.215C52.705 25.0637 55.5792 27.9045 60.6592 27.9045C63.1992 27.9045 65.0708 27.2361 66.2405 26.434ZM91.1058 27.9045C92.9439 27.9045 94.2474 27.5703 95.2166 26.8685V23.6266C94.214 24.3285 93.0108 24.7629 91.3397 24.7629C88.499 24.7629 87.3292 22.5572 87.3292 19.0814C87.3292 15.4385 88.7663 13.5669 91.3732 13.5669C92.9105 13.5669 94.4145 14.1016 95.2166 14.6029V11.2274C94.3811 10.7595 92.9105 10.4253 90.9387 10.4253C85.8587 10.4253 83.2184 14.0682 83.2184 19.1816C83.2184 24.7964 85.7918 27.9045 91.1058 27.9045ZM29.8116 10.7595V17.4103H24.4976V10.7595H20.5205V27.5703H24.4976V20.5519H29.8116V27.5703H33.7887V10.7595H29.8116ZM51.7358 24.4287H49.9645V10.7595H38.3674V12.1966C38.3674 16.3074 38.1 21.6214 36.6963 24.4287H35.4597V31.4137H39.1361V27.5703H48.0595V31.4137H51.7358V24.4287ZM78.9405 27.5703H83.4524L77.0689 18.5132L82.6837 10.7595H78.6732L73.0584 18.5132V10.7595H69.0813V27.5703H73.0584V19.3153L78.9405 27.5703ZM59.7903 13.5669C61.7621 13.5669 62.3637 15.2045 62.3637 17.31V17.6443H56.8158C56.9161 14.9706 57.8853 13.5669 59.7903 13.5669ZM45.9874 24.4287H40.3726C41.4755 21.8887 41.7763 17.31 41.7763 14.4024V13.9011H45.9874V24.4287Z" fill="black"/>
<path d="M104.671 4.34268V27.5703H108.715V7.48426H115.934V27.5703H119.978V4.34268H104.671ZM126.984 10.7595H123.307V32.4164H127.284V25.5985C128.287 27.1024 129.757 27.9045 131.462 27.9045C135.339 27.9045 138.012 24.7964 138.012 19.1482C138.012 13.5335 135.406 10.4253 131.662 10.4253C129.791 10.4253 128.254 11.2943 127.184 12.9319L126.984 10.7595ZM130.459 24.7629C128.354 24.7629 127.284 23.0585 127.284 19.1816C127.284 15.2714 128.421 13.5669 130.66 13.5669C132.832 13.5669 133.902 15.2714 133.902 19.1482C133.902 23.0585 132.765 24.7629 130.459 24.7629ZM153.074 16.1069C153.074 12.0295 151.002 10.4922 146.79 10.4922C144.15 10.4922 142.078 11.3277 140.875 12.0295V15.3382C141.944 14.5361 144.284 13.6672 146.323 13.6672C148.228 13.6672 149.097 14.3356 149.097 16.1403V17.0761H148.462C142.379 17.0761 139.672 19.0814 139.672 22.4903C139.672 25.8993 141.744 27.8043 144.819 27.8043C147.158 27.8043 148.161 27.0356 148.929 26.2335H149.097C149.13 26.6679 149.264 27.2361 149.397 27.5703H153.274C153.14 26.2 153.074 24.8298 153.074 23.4595V16.1069ZM149.097 23.5598C148.595 24.295 147.659 24.8966 146.256 24.8966C144.585 24.8966 143.749 23.894 143.749 22.39C143.749 20.4182 145.119 19.7164 148.528 19.7164H149.097V23.5598ZM166.131 27.5703H170.642L164.259 18.5132L169.874 10.7595H165.863L160.248 18.5132V10.7595H156.271V27.5703H160.248V19.3153L166.131 27.5703ZM183.813 13.9011V10.7595H170.478V13.9011H175.157V27.5703H179.134V13.9011H183.813ZM186.168 10.7595V27.5703H189.61L195.759 17.1764V27.5703H199.636V10.7595H196.194L190.044 21.1535V10.7595H186.168ZM212.835 27.5703H217.347L210.964 18.5132L216.578 10.7595H212.568L206.953 18.5132V10.7595H202.976V27.5703H206.953V19.3153L212.835 27.5703ZM220.846 32.7506C224.556 32.7506 225.926 30.1103 227.063 26.6679L232.31 10.7595H228.466L224.757 23.3927L221.047 10.7595H216.869L222.651 28.3056C222.217 29.1077 221.582 29.609 220.479 29.609C219.743 29.609 219.108 29.375 218.674 28.9406V32.1824C218.674 32.1824 219.275 32.7506 220.846 32.7506ZM248.156 27.5703H252.033L251.966 10.7595H246.519L242.876 21.9556L239.6 10.7595H233.819V27.5703H237.194V15.004L240.837 27.5703H244.079L248.156 15.004V27.5703Z" fill="black"/>
</svg>
