<svg width="24" height="22" viewBox="0 0 24 22" fill="none" xmlns="http://www.w3.org/2000/svg">
<path d="M13.3973 0.504712C12.8348 0.565649 12.2254 0.823462 11.7801 1.18909C11.316 1.57346 10.8801 2.2719 10.702 2.93752C10.5895 3.35471 10.5895 4.2969 10.7066 4.71409C10.9691 5.6844 11.6395 6.5844 12.9754 7.77502C13.7816 8.49221 15.7832 10.1703 15.9238 10.2453C16.0551 10.311 16.3832 10.311 16.5145 10.2453C16.6551 10.1703 18.6566 8.49221 19.4629 7.77502C20.7988 6.5844 21.4691 5.6844 21.7316 4.71409C21.8488 4.2969 21.8488 3.35471 21.7363 2.93752C21.4738 1.9719 20.8691 1.20784 20.0441 0.804712C19.5707 0.575024 19.2238 0.495337 18.6801 0.495337C17.7754 0.495337 17.1613 0.762524 16.5145 1.42815L16.2191 1.72815L15.9285 1.42346C15.427 0.907837 14.8223 0.589087 14.227 0.523462C13.7723 0.471899 13.7066 0.471899 13.3973 0.504712Z" fill="#757575"/>
<path d="M8.15625 11.4078C7.425 11.45 6.59063 11.7266 5.92969 12.1531L5.67188 12.3172V16.9344V21.5516L11.2406 21.5328C16.125 21.5188 16.8469 21.5047 17.1328 21.4391C18.2297 21.1906 19.0078 20.7641 19.7438 20.0141C20.2031 19.5453 23.6531 14.9797 23.8313 14.6094C23.9531 14.3516 23.9766 14.2484 23.9766 13.9297C23.9766 13.6203 23.9531 13.5078 23.85 13.2875C23.4938 12.5234 22.65 12.2 21.9469 12.5516C21.675 12.6828 21.5438 12.8234 19.9594 14.6469C18.0844 16.8078 18.0469 16.8453 17.7469 17.0141C17.2125 17.3141 17.2969 17.3047 14.3813 17.3047C11.7609 17.3047 11.7234 17.3047 11.5922 17.2063C11.1703 16.8922 11.1328 16.4094 11.5078 16.0625L11.6344 15.9453L14.0531 15.9172C15.5859 15.9031 16.7063 15.8328 16.8 15.8C17.0531 15.711 17.0344 15.6547 17.2125 15.4672C17.7516 14.9094 17.7328 14 17.1703 13.4797C16.6219 13.1094 16.8703 13.1375 14.4844 13.1094C12 13.4797 11.5922 13.2688 11.2406 12.5516C10.8047 12.1906 10.5469 11.8344 10.0547 11.6656C9.50625 11.4781 8.74688 11.3797 8.15625 11.4078Z" fill="#757575"/>
<path d="M0.525183 13.1094C0.440808 13.1281 0.314245 13.1937 0.24862 13.2547C-0.00450461 13.4937 0.000182899 13.3812 0.000182899 17.3141C0.000182899 21.3828 -0.0185671 21.1672 0.32362 21.3922C0.482995 21.5 0.487683 21.5 2.37206 21.5H4.26581V17.2812V13.0625L2.47518 13.0672C1.48612 13.0719 0.609558 13.0906 0.525183 13.1094Z" fill="#757575"/>
</svg>
