<svg width="24" height="24" viewBox="0 0 24 24" fill="none" xmlns="http://www.w3.org/2000/svg">
<g clip-path="url(#clip0_690_8586)">
<path d="M13.3969 1.50471C12.8344 1.56565 12.225 1.82346 11.7797 2.18909C11.3156 2.57346 10.8797 3.2719 10.7016 3.93752C10.5891 4.35471 10.5891 5.2969 10.7063 5.71409C10.9688 6.6844 11.6391 7.5844 12.975 8.77502C13.7813 9.49221 15.7828 11.1703 15.9234 11.2453C16.0547 11.311 16.3828 11.311 16.5141 11.2453C16.6547 11.1703 18.6563 9.49221 19.4625 8.77502C20.7984 7.5844 21.4688 6.6844 21.7313 5.71409C21.8484 5.2969 21.8484 4.35471 21.7359 3.93752C21.4734 2.9719 20.8688 2.20784 20.0438 1.80471C19.5703 1.57502 19.2234 1.49534 18.6797 1.49534C17.775 1.49534 17.1609 1.76252 16.5141 2.42815L16.2188 2.72815L15.9281 2.42346C15.4266 1.90784 14.8219 1.58909 14.2266 1.52346C13.7719 1.4719 13.7063 1.4719 13.3969 1.50471Z" fill="black" fill-opacity="0.85"/>
<path d="M8.15625 12.4078C7.425 12.45 6.59063 12.7266 5.92969 13.1531L5.67188 13.3172V17.9344V22.5516L11.2406 22.5328C16.125 22.5188 16.8469 22.5047 17.1328 22.4391C18.2297 22.1906 19.0078 21.7641 19.7438 21.0141C20.2031 20.5453 23.6531 15.9797 23.8313 15.6094C23.9531 15.3516 23.9766 15.2484 23.9766 14.9297C23.9766 14.6203 23.9531 14.5078 23.85 14.2875C23.4938 13.5234 22.65 13.2 21.9469 13.5516C21.675 13.6828 21.5438 13.8234 19.9594 15.6469C18.0844 17.8078 18.0469 17.8453 17.7469 18.0141C17.2125 18.3141 17.2969 18.3047 14.3813 18.3047C11.7609 18.3047 11.7234 18.3047 11.5922 18.2063C11.1703 17.8922 11.1328 17.4094 11.5078 17.0625L11.6344 16.9453L14.0531 16.9172C15.5859 16.9031 16.7063 16.8328 16.8 16.8C17.0531 16.7109 17.0344 16.6547 17.2125 16.4672C17.7516 15.9094 17.7328 15 17.1703 14.4797C16.6219 14.1094 16.8703 14.1375 14.4844 14.1094C12 14.4797 11.5922 14.2688 11.2406 13.5516C10.8047 13.1906 10.5469 12.8344 10.0547 12.6656C9.50625 12.4781 8.74688 12.3797 8.15625 12.4078Z" fill="black" fill-opacity="0.85"/>
<path d="M0.525 14.1094C0.440625 14.1281 0.314062 14.1937 0.248437 14.2547C-0.00468771 14.4937 -2.06535e-07 14.3812 -2.06535e-07 18.3141C-2.06535e-07 22.3828 -0.0187502 22.1672 0.323437 22.3922C0.482812 22.5 0.4875 22.5 2.37187 22.5H4.26562V18.2812V14.0625L2.475 14.0672C1.48594 14.0719 0.609375 14.0906 0.525 14.1094Z" fill="black" fill-opacity="0.85"/>
</g>
<defs>
<clipPath id="clip0_690_8586">
<rect width="24" height="24" fill="white"/>
</clipPath>
</defs>
</svg>
