<svg width="251" height="169" viewBox="0 0 251 169" fill="none" xmlns="http://www.w3.org/2000/svg">
<path d="M113.216 70.3963C79.688 26.1917 46.0705 19.3635 28.5547 28.5113C7.3446 39.5883 9.74409 74.0907 64.5015 94.0207" stroke="black" stroke-width="6.78785"/>
<path d="M143.321 81.3018C208.345 49.2109 241.595 71.4279 242.268 95.642C242.914 118.876 213.566 143.948 153.517 124.649" stroke="black" stroke-width="6.78785"/>
<rect x="151.041" y="50.2305" width="65.3544" height="65.3544" rx="11.9732" transform="rotate(83.0765 151.041 50.2305)" fill="#4C75FA"/>
<path d="M64.5019 94.0198C9.74445 74.0897 7.34496 39.5874 28.555 28.5103" stroke="black" stroke-width="6.78785"/>
<path d="M105.697 79.4152C105.573 78.3939 105.79 77.5278 106.347 76.8169C106.939 76.1018 107.693 75.6886 108.608 75.5774C109.595 75.4577 110.443 75.6763 111.154 76.2332C111.865 76.7901 112.282 77.5792 112.406 78.6005C112.526 79.5866 112.307 80.4351 111.75 81.146C111.194 81.8569 110.422 82.2722 109.436 82.3919C108.52 82.5031 107.689 82.2824 106.943 81.7297C106.232 81.1728 105.817 80.4013 105.697 79.4152ZM125.93 76.9584C125.806 75.9371 126.022 75.071 126.579 74.3601C127.171 73.645 127.925 73.2318 128.841 73.1206C129.827 73.0009 130.675 73.2195 131.386 73.7764C132.097 74.3333 132.515 75.1224 132.639 76.1437C132.758 77.1298 132.54 77.9783 131.983 78.6892C131.426 79.4001 130.654 79.8154 129.668 79.9351C128.753 80.0463 127.922 79.8256 127.176 79.2729C126.465 78.716 126.049 77.9445 125.93 76.9584ZM100.938 98.9295C103.738 95.802 107.065 93.3253 110.917 91.4996C114.805 89.6695 119.002 88.4808 123.51 87.9334C125.729 87.664 127.967 87.5531 130.224 87.6006C132.485 87.6834 134.678 87.9353 136.802 88.3564C138.965 88.8084 141.005 89.4184 142.921 90.1864C144.841 90.9896 146.606 91.9903 148.217 93.1885L148.775 97.7843C147.226 96.5072 145.492 95.467 143.571 94.6638C141.651 93.8606 139.627 93.2308 137.499 92.7745C135.375 92.3534 133.185 92.1191 130.928 92.0716C128.67 92.024 126.432 92.135 124.214 92.4044C119.706 92.9518 115.506 94.1229 111.614 95.9177C107.727 97.7477 104.354 100.284 101.496 103.525L100.938 98.9295Z" fill="#101010"/>
<path d="M153.517 124.649C213.566 143.949 242.913 118.876 242.268 95.6425" stroke="black" stroke-width="6.78785"/>
</svg>
