<svg width="128" height="141" viewBox="0 0 128 141" fill="none" xmlns="http://www.w3.org/2000/svg">
<g clip-path="url(#clip0_482_12232)">
<rect x="65.4461" y="21.418" width="88.5163" height="88.5163" rx="16.2165" transform="rotate(45 65.4461 21.418)" fill="#4C75FA"/>
<path d="M42.9158 92.8481C41.9305 91.8628 41.4378 90.7586 41.4378 89.5355C41.4718 88.2784 41.9305 87.2082 42.8138 86.3248C43.7652 85.3735 44.8524 84.8978 46.0755 84.8978C47.2986 84.8978 48.4028 85.3905 49.3881 86.3758C50.3394 87.3271 50.8151 88.4143 50.8151 89.6374C50.8151 90.8605 50.3394 91.9478 49.3881 92.8991C48.5048 93.7825 47.4345 94.2411 46.1774 94.2751C44.9543 94.2751 43.8671 93.7994 42.9158 92.8481ZM62.4348 73.3291C61.4495 72.3438 60.9568 71.2396 60.9568 70.0165C60.9908 68.7594 61.4495 67.6891 62.3328 66.8058C63.2842 65.8545 64.3714 65.3788 65.5945 65.3788C66.8176 65.3788 67.9218 65.8715 68.9071 66.8567C69.8585 67.8081 70.3341 68.8953 70.3341 70.1184C70.3341 71.3415 69.8585 72.4288 68.9071 73.3801C68.0238 74.2634 66.9535 74.7221 65.6964 74.7561C64.4733 74.7561 63.3861 74.2804 62.4348 73.3291ZM54.1409 117.63C54.5146 111.956 55.9925 106.536 58.5747 101.372C61.1908 96.1739 64.6733 91.4003 69.0222 87.0514C71.1627 84.911 73.456 82.9234 75.9023 81.0887C78.3825 79.288 80.9307 77.7251 83.5468 76.4001C86.2309 75.075 88.9149 74.0218 91.599 73.2403C94.3171 72.4929 97.0351 72.0851 99.7532 72.0172L104.187 76.451C101.469 76.3831 98.7509 76.7228 96.0328 77.4703C93.3148 78.2178 90.6307 79.237 87.9806 80.5281C85.3645 81.8531 82.8333 83.433 80.3871 85.2677C77.9408 87.1024 75.6475 89.09 73.507 91.2304C69.1581 95.5793 65.6586 100.336 63.0085 105.5C60.3924 110.698 58.9144 116.22 58.5747 122.063L54.1409 117.63Z" fill="#101010"/>
</g>
<defs>
<clipPath id="clip0_482_12232">
<rect width="127.863" height="141" fill="white"/>
</clipPath>
</defs>
</svg>
