<svg width="249" height="156" viewBox="0 0 249 156" fill="none" xmlns="http://www.w3.org/2000/svg">
<path d="M246 7.44573C222.476 -21.7668 198.952 145.975 198.952 89.7024C198.952 33.4296 142.911 49.3639 142.911 111.556C91.2525 -67.4318 55.6594 124.065 86.5633 130.215C117.467 136.365 86.5633 54.4938 47.7412 124.143" stroke="#101010" stroke-width="6.15003" stroke-linejoin="bevel"/>
<rect x="33.5824" y="88.625" width="47.4927" height="47.4927" rx="8.70082" transform="rotate(45 33.5824 88.625)" fill="#4C75FA"/>
<path d="M21.2585 127.096C20.7298 126.568 20.4655 125.975 20.4655 125.319C20.4838 124.644 20.7298 124.07 21.2038 123.596C21.7142 123.086 22.2976 122.831 22.9538 122.831C23.6101 122.831 24.2025 123.095 24.7312 123.624C25.2416 124.134 25.4968 124.717 25.4968 125.374C25.4968 126.03 25.2416 126.613 24.7312 127.124C24.2572 127.598 23.683 127.844 23.0085 127.862C22.3523 127.862 21.7689 127.607 21.2585 127.096ZM31.7313 116.623C31.2026 116.095 30.9383 115.502 30.9383 114.846C30.9565 114.172 31.2026 113.597 31.6766 113.123C32.187 112.613 32.7703 112.358 33.4266 112.358C34.0829 112.358 34.6753 112.622 35.204 113.151C35.7144 113.661 35.9696 114.245 35.9696 114.901C35.9696 115.557 35.7144 116.14 35.204 116.651C34.73 117.125 34.1558 117.371 33.4813 117.389C32.825 117.389 32.2417 117.134 31.7313 116.623ZM27.2812 140.393C27.4818 137.348 28.2747 134.441 29.6602 131.67C31.0638 128.881 32.9323 126.319 35.2657 123.986C36.4141 122.838 37.6446 121.771 38.9571 120.787C40.2879 119.821 41.6551 118.982 43.0588 118.271C44.4989 117.56 45.939 116.995 47.3791 116.576C48.8375 116.175 50.2958 115.956 51.7542 115.92L54.1331 118.299C52.6747 118.262 51.2164 118.444 49.758 118.845C48.2997 119.246 46.8596 119.793 45.4377 120.486C44.034 121.197 42.6759 122.045 41.3634 123.029C40.0509 124.013 38.8204 125.08 37.672 126.228C35.3386 128.562 33.461 131.114 32.0391 133.885C30.6354 136.674 29.8425 139.636 29.6602 142.771L27.2812 140.393Z" fill="#101010"/>
</svg>
