<svg width="254" height="146" viewBox="0 0 254 146" fill="none" xmlns="http://www.w3.org/2000/svg">
<path d="M201.259 19.4457C177.735 -9.76678 154.211 157.975 154.211 101.702C154.211 45.4296 98.1702 61.3639 98.1702 123.556C46.5113 -55.4318 10.9182 136.065 41.8221 142.215C72.726 148.365 41.8221 66.4938 3 136.143" stroke="#101010" stroke-width="6.15003" stroke-linejoin="bevel"/>
<rect x="219.582" width="47.4927" height="47.4927" rx="8.70082" transform="rotate(45 219.582 0)" fill="#4C75FA"/>
<path d="M207.259 38.4713C206.73 37.9426 206.466 37.3501 206.466 36.6939C206.484 36.0194 206.73 35.4452 207.204 34.9712C207.714 34.4608 208.298 34.2056 208.954 34.2056C209.61 34.2056 210.203 34.4699 210.731 34.9986C211.242 35.509 211.497 36.0923 211.497 36.7486C211.497 37.4048 211.242 37.9882 210.731 38.4986C210.257 38.9726 209.683 39.2187 209.009 39.2369C208.352 39.2369 207.769 38.9817 207.259 38.4713ZM217.731 27.9985C217.203 27.4698 216.938 26.8774 216.938 26.2211C216.957 25.5466 217.203 24.9724 217.677 24.4984C218.187 23.988 218.77 23.7328 219.427 23.7328C220.083 23.7328 220.675 23.9971 221.204 24.5258C221.714 25.0362 221.97 25.6196 221.97 26.2758C221.97 26.9321 221.714 27.5154 221.204 28.0258C220.73 28.4998 220.156 28.7459 219.481 28.7641C218.825 28.7641 218.242 28.5089 217.731 27.9985ZM213.281 51.7675C213.482 48.7232 214.275 45.8156 215.66 43.0448C217.064 40.2557 218.932 37.6944 221.266 35.3611C222.414 34.2126 223.645 33.1462 224.957 32.1618C226.288 31.1957 227.655 30.3571 229.059 29.6462C230.499 28.9352 231.939 28.3701 233.379 27.9508C234.837 27.5498 236.296 27.331 237.754 27.2946L240.133 29.6735C238.675 29.6371 237.216 29.8194 235.758 30.2204C234.3 30.6214 232.86 31.1683 231.438 31.861C230.034 32.572 228.676 33.4197 227.363 34.404C226.051 35.3884 224.82 36.4548 223.672 37.6033C221.339 39.9367 219.461 42.4888 218.039 45.2596C216.635 48.0487 215.842 51.011 215.66 54.1464L213.281 51.7675Z" fill="#101010"/>
</svg>
