<svg width="95" height="140" viewBox="0 0 95 140" fill="none" xmlns="http://www.w3.org/2000/svg">
<g clip-path="url(#clip0_536_13477)">
<path d="M0 47.5V140H95V47.5C95 21.2665 73.7335 0 47.5 0C21.2665 0 0 21.2665 0 47.5Z" fill="black"/>
<rect x="74.7294" y="24.457" width="101.072" height="101.072" rx="18.5167" transform="rotate(45 74.7294 24.457)" fill="white"/>
<path d="M49.4294 105.523C48.3043 104.398 47.7418 103.138 47.7418 101.741C47.7806 100.306 48.3043 99.0835 49.313 98.0749C50.3993 96.9886 51.6407 96.4455 53.0373 96.4455C54.4339 96.4455 55.6948 97.008 56.8198 98.1331C57.9061 99.2193 58.4492 100.461 58.4492 101.857C58.4492 103.254 57.9061 104.495 56.8198 105.582C55.8112 106.59 54.5891 107.114 53.1537 107.153C51.7571 107.153 50.5157 106.61 49.4294 105.523ZM71.7171 83.2358C70.592 82.1108 70.0295 80.8499 70.0295 79.4533C70.0683 78.0179 70.592 76.7959 71.6007 75.7872C72.6869 74.701 73.9284 74.1578 75.325 74.1578C76.7216 74.1578 77.9824 74.7204 79.1075 75.8454C80.1937 76.9317 80.7369 78.1731 80.7369 79.5697C80.7369 80.9663 80.1937 82.2078 79.1075 83.294C78.0988 84.3027 76.8768 84.8264 75.4414 84.8652C74.0448 84.8652 72.8033 84.3221 71.7171 83.2358ZM62.2467 133.82C62.6735 127.341 64.361 121.153 67.3094 115.257C70.2967 109.321 74.2731 103.87 79.2389 98.9046C81.683 96.4605 84.3016 94.191 87.0948 92.0961C89.9269 90.0399 92.8365 88.2554 95.8237 86.7424C98.8885 85.2294 101.953 84.0267 105.018 83.1345C108.122 82.281 111.225 81.8154 114.329 81.7378L119.392 86.8006C116.288 86.723 113.184 87.1109 110.081 87.9644C106.977 88.8179 103.912 89.9818 100.886 91.456C97.8992 92.969 95.009 94.7729 92.2158 96.8678C89.4225 98.9628 86.8039 101.232 84.3598 103.676C79.3941 108.642 75.3982 114.073 72.3722 119.97C69.385 125.906 67.6974 132.21 67.3094 138.883L62.2467 133.82Z" fill="#101010"/>
</g>
<defs>
<clipPath id="clip0_536_13477">
<rect width="95" height="140" fill="white"/>
</clipPath>
</defs>
</svg>
