<svg width="177" height="125" viewBox="0 0 177 125" fill="none" xmlns="http://www.w3.org/2000/svg">
<rect opacity="0.8" x="6.32077" y="63.7852" width="59.8185" height="60.2165" rx="5" fill="#F5F5F5"/>
<path d="M116.413 102.605C122.6 99.525 145.968 51.6073 129.018 63.7485C49.6147 120.626 3.99999 68.929 3.99999 41.7859" stroke="#101010" stroke-width="6.9654" stroke-linecap="square"/>
<path d="M102.131 104.247C159.008 146.413 216.865 96.8924 124.195 93.4596" stroke="#101010" stroke-width="6.9654" stroke-linecap="square"/>
<rect x="66.5208" y="17.2266" width="47.4927" height="47.4927" rx="8.70082" transform="rotate(15 66.5208 17.2266)" fill="#7091FB"/>
<path d="M75.0846 56.7091C74.3624 56.5156 73.8373 56.1347 73.5092 55.5664C73.1877 54.9731 73.1137 54.3528 73.2872 53.7054C73.474 53.0081 73.8516 52.4954 74.42 52.1673C74.9883 51.8392 75.6335 51.7719 76.3557 51.9654C77.0529 52.1522 77.5656 52.5298 77.8938 53.0981C78.2219 53.6664 78.2925 54.2992 78.1057 54.9965C77.9322 55.6439 77.558 56.1442 76.983 56.4972C76.4146 56.8253 75.7818 56.896 75.0846 56.7091ZM78.9179 42.4031C78.1957 42.2096 77.6706 41.8287 77.3425 41.2603C77.021 40.6671 76.947 40.0467 77.1205 39.3993C77.3073 38.702 77.6849 38.1894 78.2533 37.8612C78.8216 37.5331 79.4668 37.4658 80.189 37.6593C80.8862 37.8461 81.3989 38.2237 81.7271 38.792C82.0552 39.3604 82.1258 39.9932 81.939 40.6904C81.7655 41.3378 81.3913 41.8381 80.8163 42.1911C80.2479 42.5192 79.6151 42.5899 78.9179 42.4031ZM86.9486 65.2127C85.6001 62.476 84.833 59.5614 84.6474 56.4691C84.4685 53.3518 84.806 50.1995 85.6601 47.0121C86.0805 45.4432 86.6129 43.9045 87.2574 42.3957C87.9267 40.8936 88.6915 39.4838 89.5516 38.1663C90.4433 36.8305 91.408 35.6211 92.4455 34.5379C93.508 33.4614 94.6615 32.5428 95.9063 31.782L99.156 32.6528C97.8748 33.3504 96.7029 34.2374 95.6405 35.3139C94.5781 36.3904 93.6043 37.5841 92.7193 38.8949C91.8591 40.2125 91.1068 41.6256 90.4624 43.1344C89.8179 44.6431 89.2855 46.1819 88.8651 47.7507C88.011 50.9382 87.661 54.0872 87.8151 57.1977C87.994 60.315 88.7884 63.2769 90.1983 66.0834L86.9486 65.2127Z" fill="#101010"/>
</svg>
