<svg width="18" height="18" viewBox="0 0 18 18" fill="none" xmlns="http://www.w3.org/2000/svg">
<path fill-rule="evenodd" clip-rule="evenodd" d="M7.30211 14.6043C8.96701 14.6043 10.5024 14.0465 11.7321 13.1079L16.35 17.7268C16.5336 17.9041 16.7796 18.0022 17.0348 18C17.2901 17.9978 17.5343 17.8954 17.7148 17.7149C17.8953 17.5344 17.9977 17.2902 18 17.0349C18.0022 16.7796 17.904 16.5337 17.7267 16.3501L13.1078 11.7312C14.1071 10.4213 14.6341 8.81201 14.6031 7.16479C14.5721 5.51756 13.9849 3.92922 12.9371 2.65788C11.8892 1.38653 10.4422 0.506889 8.83125 0.161898C7.22026 -0.183093 5.53995 0.02684 4.06335 0.757584C2.58676 1.48833 1.40067 2.69693 0.697829 4.18701C-0.00501626 5.67708 -0.183312 7.36105 0.191915 8.96527C0.567142 10.5695 1.47384 11.9997 2.76467 13.0234C4.0555 14.0472 5.6546 14.6043 7.30211 14.6043ZM12.657 7.30218C12.657 8.72239 12.0929 10.0844 11.0886 11.0887C10.0844 12.0929 8.72233 12.6571 7.30211 12.6571C5.8819 12.6571 4.51985 12.0929 3.51561 11.0887C2.51137 10.0844 1.94719 8.72239 1.94719 7.30218C1.94719 5.88196 2.51137 4.51992 3.51561 3.51567C4.51985 2.51143 5.8819 1.94725 7.30211 1.94725C8.72233 1.94725 10.0844 2.51143 11.0886 3.51567C12.0929 4.51992 12.657 5.88196 12.657 7.30218Z" fill="black" fill-opacity="0.5"/>
</svg>
