<svg width="193" height="121" viewBox="0 0 193 121" fill="none" xmlns="http://www.w3.org/2000/svg">
<rect x="172.045" y="75.7891" width="14.7874" height="15.5268" transform="rotate(20 172.045 75.7891)" fill="#EDEDED"/>
<path d="M182.654 89.876L175.263 81.0675L171.33 91.8728L182.654 89.876ZM169.808 86.26L173.892 87.7465L174.573 85.875L170.489 84.3885L169.808 86.26Z" fill="#454545"/>
<rect x="45.8508" y="20.4141" width="117.56" height="51.0165" rx="25.5083" transform="rotate(20 45.8508 20.4141)" fill="black"/>
<path d="M5.53791 49.0258C10.7878 41.1264 57.2147 13.9231 76.1725 19.2535C95.1303 24.584 49.1816 53.7933 44.7927 63.3141C53.9808 56.1941 90.6777 44.9903 103.819 49.7732C116.96 54.5562 100.352 73.0712 92.5623 80.7001C95.7968 75.0757 115.412 72.5507 136.956 75.9968" stroke="#4C75FA" stroke-width="12.7191"/>
</svg>
