<svg width="23" height="14" viewBox="0 0 23 14" fill="none" xmlns="http://www.w3.org/2000/svg">
<path fill-rule="evenodd" clip-rule="evenodd" d="M11.3995 13.4077H12.6801C12.6801 13.4077 13.066 13.3634 13.263 13.1403C13.4501 12.9322 13.4501 12.5472 13.4501 12.5472C13.4501 12.5472 13.4225 10.7329 14.2246 10.4665C15.0151 10.2019 16.0177 12.2176 17.0863 12.9925C17.9026 13.5847 18.5167 13.4576 18.5167 13.4576L21.3783 13.4162C21.3783 13.4162 22.8773 13.3173 22.1688 12.0736C22.1145 11.9747 21.7669 11.1556 20.0558 9.47505C18.2627 7.72292 18.5033 8.00537 20.6582 4.9681C21.9674 3.11806 22.503 1.98732 22.3292 1.50715C22.1813 1.05523 21.2063 1.16727 21.2063 1.16727L17.9962 1.19646C17.9962 1.19646 17.7556 1.16727 17.5818 1.28119C17.408 1.39323 17.3019 1.64932 17.3019 1.64932C17.3019 1.64932 16.7922 3.08887 16.1113 4.30434C14.6649 6.87369 14.09 7.01492 13.8628 6.84545C13.3245 6.47732 13.4626 5.35788 13.4626 4.55572C13.4626 2.06923 13.8227 1.0251 12.7666 0.756777C12.419 0.671101 12.1597 0.615553 11.2649 0.600489C10.1152 0.587308 9.14559 0.609904 8.59572 0.893295C8.23478 1.08442 7.95405 1.50715 8.11536 1.52881C8.32925 1.55705 8.80961 1.66626 9.0636 2.03439C9.39781 2.51079 9.38355 3.57468 9.38355 3.57468C9.38355 3.57468 9.57159 6.50839 8.94329 6.87275C8.50214 7.11942 7.91394 6.60913 6.6306 4.27798C5.97556 3.09169 5.48005 1.76418 5.48005 1.76418C5.48005 1.76418 5.38647 1.52316 5.21358 1.38193C5.01128 1.22659 4.71718 1.1701 4.71718 1.1701L1.65587 1.19834C1.65587 1.19834 1.20136 1.2134 1.04183 1.4243C0.893891 1.60789 1.02757 2.00332 1.02757 2.00332C1.02757 2.00332 3.42136 7.92252 6.13598 10.9033C8.62245 13.6355 11.444 13.4595 11.444 13.4595L11.3995 13.4077Z" fill="#4C75FA" fill-opacity="1"/>
</svg>
